<?xml version="1.0" encoding="utf-8"?>
<!-- Generator: Adobe Illustrator 27.5.0, SVG Export Plug-In . SVG Version: 6.00 Build 0)  -->
<svg version="1.1" id="Layer_1" xmlns="http://www.w3.org/2000/svg" xmlns:xlink="http://www.w3.org/1999/xlink" x="0px" y="0px"
	 viewBox="0 0 4060 4060" style="enable-background:new 0 0 4060 4060;" xml:space="preserve">
<g>
	<linearGradient id="SVGID_1_" gradientUnits="userSpaceOnUse" x1="4060" y1="4060" x2="1.818989e-12" y2="-9.094947e-13">
		<stop  offset="0" style="stop-color:#3A9F4A"/>
		<stop  offset="0.101" style="stop-color:#3AA34A"/>
		<stop  offset="0.5763" style="stop-color:#3AB04A"/>
		<stop  offset="1" style="stop-color:#3AB54A"/>
	</linearGradient>
	<rect style="fill:url(#SVGID_1_);" width="4060" height="4060"/>
	<g>
		<path style="fill:#FFFFFF;" d="M1039.844,722.477h-801.18C170.919,722.477,116,667.559,116,599.813V238.664
			C116,170.919,170.919,116,238.664,116h801.18c67.746,0,122.664,54.919,122.664,122.664v361.149
			C1162.508,667.559,1107.589,722.477,1039.844,722.477z"/>
		<g>
			<polygon style="fill:#298432;" points="325.281,298.134 281.461,186.906 264.908,186.906 317.251,320.51 333.194,320.51 
				385.538,186.906 369.101,186.906 			"/>
			<polygon style="fill:#298432;" points="497.936,305.429 414.912,305.429 414.912,258.621 489.762,258.621 489.762,243.54 
				414.912,243.54 414.912,201.987 494.783,201.987 494.783,186.906 399.831,186.906 399.831,320.51 497.936,320.51 			"/>
			<path style="fill:#298432;" d="M542.797,213.007c3.926-4.358,8.753-7.703,14.347-9.941c5.667-2.266,12.085-3.415,19.078-3.415
				c4.905,0,9.552,0.665,13.811,1.975c4.246,1.307,8.043,3.12,11.284,5.388c3.214,2.25,5.925,4.923,8.059,7.945
				c2.104,2.982,3.562,6.232,4.333,9.66l0.504,2.24h15.549l-0.756-3.479c-1.24-5.704-3.506-11.011-6.735-15.773
				c-3.208-4.73-7.211-8.857-11.897-12.27c-4.662-3.393-9.983-6.066-15.815-7.943c-5.827-1.874-12.035-2.824-18.453-2.824
				c-9.3,0-17.831,1.63-25.357,4.843c-7.562,3.23-14.111,7.915-19.465,13.925c-5.334,5.985-9.477,13.293-12.313,21.721
				c-2.811,8.352-4.237,17.853-4.237,28.24c0,10.463,1.424,20.058,4.233,28.52c2.833,8.543,6.953,15.928,12.245,21.951
				c5.314,6.051,11.84,10.797,19.397,14.105c7.531,3.298,16.11,4.97,25.498,4.97c6.862,0,13.348-0.905,19.278-2.691
				c5.975-1.8,11.344-4.466,15.958-7.926c4.636-3.477,8.537-7.818,11.597-12.903c3.061-5.089,5.113-10.92,6.099-17.332l0.509-3.306
				H614.11l-0.426,2.36c-1.587,8.797-5.55,15.276-12.118,19.809c-6.64,4.583-15.284,6.907-25.694,6.907
				c-6.904,0-13.23-1.182-18.803-3.514c-5.524-2.31-10.318-5.75-14.249-10.224c-3.963-4.506-7.069-10.196-9.233-16.91
				c-2.193-6.803-3.306-14.815-3.306-23.816c0-8.996,1.111-16.967,3.304-23.691C535.744,222.982,538.844,217.396,542.797,213.007z"
				/>
			<polygon style="fill:#298432;" points="641.43,201.987 685.686,201.987 685.686,320.51 700.767,320.51 700.767,201.987 
				745.491,201.987 745.491,186.906 641.43,186.906 			"/>
			<path style="fill:#298432;" d="M865.059,203.474c-5.587-6.035-12.345-10.748-20.085-14.007
				c-7.719-3.248-16.227-4.895-25.285-4.895c-9.139,0-17.667,1.648-25.349,4.898c-7.694,3.257-14.445,7.945-20.065,13.932
				c-5.612,5.978-10.037,13.277-13.152,21.695c-3.101,8.378-4.674,17.867-4.674,28.204c0,10.255,1.551,19.738,4.609,28.184
				c3.073,8.493,7.452,15.887,13.015,21.978c5.581,6.112,12.331,10.923,20.063,14.298c7.727,3.375,16.325,5.086,25.554,5.086
				c9.23,0,17.81-1.712,25.5-5.088c7.693-3.378,14.424-8.209,20.006-14.362c5.558-6.127,9.935-13.538,13.009-22.029
				c3.058-8.452,4.609-17.895,4.609-28.067c0-10.254-1.573-19.704-4.674-28.088C875.025,216.802,870.624,209.488,865.059,203.474z
				 M867.265,253.299c0,8.741-1.203,16.613-3.576,23.399c-2.351,6.719-5.686,12.453-9.912,17.045
				c-4.209,4.572-9.266,8.084-15.031,10.439c-5.812,2.376-12.263,3.582-19.174,3.582c-6.911,0-13.361-1.205-19.174-3.582
				c-5.762-2.354-10.797-5.863-14.964-10.43c-4.193-4.593-7.511-10.33-9.862-17.054c-2.372-6.781-3.576-14.653-3.576-23.399
				c0-8.734,1.22-16.539,3.625-23.197c2.382-6.6,5.732-12.217,9.956-16.696c4.204-4.458,9.264-7.899,15.04-10.225
				c5.819-2.342,12.314-3.529,19.305-3.529c6.837,0,13.215,1.168,18.958,3.472c5.688,2.283,10.685,5.7,14.853,10.156
				c4.187,4.479,7.521,10.1,9.906,16.705C866.046,236.649,867.265,244.493,867.265,253.299z"/>
			<path style="fill:#298432;" d="M998.926,281.812c-1.167-3.034-2.199-5.719-3.094-8.054c-0.944-2.461-2.031-4.76-3.234-6.836
				c-1.227-2.112-2.702-4.124-4.388-5.979c-0.632-0.695-1.331-1.402-2.092-2.12c2.6-0.904,4.993-2.034,7.152-3.38
				c3.601-2.244,6.619-5.007,8.97-8.212c2.334-3.184,4.095-6.83,5.234-10.838c1.119-3.934,1.686-8.225,1.686-12.754
				c0-7.292-1.292-13.422-3.839-18.22c-2.56-4.82-6.059-8.66-10.399-11.412c-4.216-2.671-9.067-4.551-14.419-5.59
				c-5.18-1.003-10.608-1.512-16.135-1.512h-60.438V320.51h15.081v-57.685h41.854c3.052,0,5.72,0.534,7.929,1.588
				c2.275,1.087,4.328,2.589,6.1,4.461c1.837,1.944,3.472,4.266,4.86,6.899c1.456,2.763,2.803,5.76,3.997,8.894l13.426,35.844
				h16.423L998.926,281.812z M919.013,201.987h44.189c10.416,0,18.263,1.739,23.319,5.168c4.771,3.238,7.091,8.63,7.091,16.484
				c0,4.585-0.635,8.463-1.888,11.525c-1.208,2.953-3.014,5.283-5.522,7.122c-2.568,1.885-5.945,3.27-10.035,4.116
				c-4.304,0.891-9.569,1.342-15.65,1.342h-41.503V201.987z"/>
		</g>
		<g>
			<polygon style="fill:#298432;" points="284.304,547.004 380.572,547.004 380.572,527.607 284.304,527.607 284.304,474.164 
				387.03,474.164 387.03,454.768 264.908,454.768 264.908,626.602 391.085,626.602 391.085,607.205 284.304,607.205 			"/>
			<path style="fill:#298432;" d="M528.614,464.395c-6.025-3.678-13.052-6.242-20.885-7.619c-7.595-1.332-15.592-2.008-23.766-2.008
				h-63.464v171.834h19.397v-69.385h45.57c20.314,0,36.087-4.53,46.883-13.463c11.003-9.107,16.581-22.443,16.581-39.639
				c0-9.712-1.854-17.904-5.513-24.351C539.763,473.334,534.783,468.163,528.614,464.395z M519.533,529.205
				c-3.33,2.753-7.739,4.886-13.107,6.341c-5.563,1.509-12.464,2.274-20.51,2.274h-46.02v-63.655h45.419
				c6.102,0,11.993,0.392,17.508,1.165c5.225,0.735,9.867,2.229,13.795,4.441c3.797,2.14,6.728,5.097,8.964,9.042
				c2.223,3.923,3.35,9.273,3.35,15.902c0,5.536-0.78,10.432-2.32,14.552C525.125,523.247,522.809,526.498,519.533,529.205z"/>
			<path style="fill:#298432;" d="M691.329,548.041c-3.516-3.46-7.697-6.414-12.429-8.781c-4.575-2.285-9.437-4.23-14.451-5.781
				c-4.924-1.522-10.056-2.863-15.256-3.987c-5.115-1.102-10.079-2.155-14.897-3.16c-8.005-1.659-14.765-3.457-20.091-5.346
				c-5.121-1.815-9.256-3.907-12.29-6.217c-2.833-2.155-4.847-4.57-5.988-7.179c-1.19-2.714-1.793-6.006-1.793-9.783
				c0-8.224,3.204-14.512,9.796-19.225c6.884-4.924,17.404-7.421,31.268-7.421c6.63,0,12.582,0.736,17.687,2.187
				c5.038,1.435,9.419,3.433,13.019,5.936c3.55,2.473,6.481,5.447,8.713,8.836c2.262,3.442,3.914,7.205,4.91,11.185l0.7,2.795
				h18.665l-0.562-4.182c-0.965-7.185-3.234-13.732-6.745-19.461c-3.504-5.712-8.142-10.625-13.786-14.604
				c-5.58-3.931-12.152-6.967-19.532-9.024c-7.3-2.033-15.414-3.064-24.119-3.064c-8.734,0-16.849,1.114-24.121,3.312
				c-7.351,2.22-13.761,5.405-19.052,9.466c-5.373,4.127-9.588,9.146-12.53,14.919c-2.957,5.807-4.457,12.283-4.457,19.246
				c0,6.411,1.12,12.15,3.327,17.056c2.227,4.958,5.705,9.4,10.336,13.205c4.478,3.678,10.184,6.927,16.957,9.657
				c6.61,2.667,14.613,5.052,23.821,7.097c10.768,2.274,19.89,4.523,27.113,6.683c7.009,2.098,12.697,4.49,16.905,7.107
				c3.903,2.429,6.686,5.246,8.269,8.371c1.63,3.219,2.456,7.332,2.456,12.225c0,4.572-0.967,8.715-2.874,12.313
				c-1.922,3.624-4.753,6.781-8.415,9.384c-3.774,2.683-8.426,4.769-13.826,6.199c-5.515,1.463-11.842,2.205-18.803,2.205
				c-6.742,0-13.175-0.584-19.123-1.735c-5.76-1.114-10.942-3.032-15.403-5.702c-4.363-2.607-8.088-6.176-11.072-10.609
				c-2.989-4.436-5.067-10.155-6.176-17.001l-0.503-3.101h-18.943l0.255,3.93c0.529,8.153,2.42,15.616,5.622,22.18
				c3.242,6.646,7.971,12.391,14.056,17.075c6.006,4.625,13.475,8.222,22.198,10.69c8.603,2.434,18.744,3.669,30.141,3.669
				c8.851,0,17.192-1.248,24.791-3.709c7.659-2.481,14.374-6.032,19.958-10.554c5.639-4.564,10.11-10.074,13.29-16.377
				c3.202-6.353,4.825-13.405,4.825-20.96c0-6.591-1.09-12.42-3.239-17.326C697.799,555.818,694.906,551.567,691.329,548.041z"/>
			<path style="fill:#298432;" d="M807.174,457.607c-2.107,8.878-6.361,15.436-13.006,20.047c-6.74,4.677-16.012,7.286-27.556,7.755
				l-3.541,0.143v19.338l3.777-0.089c8.832-0.207,16.871-1.481,23.893-3.787c4.629-1.519,8.94-3.316,12.88-5.364v130.952h19.397
				V454.768h-15.169L807.174,457.607z"/>
			<path style="fill:#298432;" d="M997.373,478.732c-5.38-8.173-12.054-14.761-19.838-19.582
				c-7.918-4.901-16.985-7.386-26.949-7.386c-9.969,0-19.04,2.513-26.964,7.471c-7.788,4.875-14.413,11.495-19.69,19.675
				c-5.199,8.057-9.224,17.542-11.963,28.19c-2.718,10.562-4.096,21.837-4.096,33.51c0,11.675,1.378,22.95,4.096,33.509
				c2.738,10.648,6.788,20.159,12.04,28.27c5.326,8.229,11.947,14.871,19.679,19.74c7.874,4.961,16.924,7.477,26.898,7.477
				c9.963,0,19.03-2.485,26.949-7.386c7.79-4.822,14.444-11.443,19.779-19.681c5.247-8.108,9.322-17.613,12.111-28.253
				c2.771-10.568,4.176-21.899,4.176-33.676c0-11.763-1.378-23.088-4.096-33.661C1006.76,496.288,1002.678,486.794,997.373,478.732z
				 M950.737,609.909c-6.938,0-13.125-1.765-18.39-5.246c-5.409-3.574-10-8.524-13.649-14.716
				c-3.742-6.343-6.608-13.819-8.516-22.222c-1.932-8.493-2.912-17.616-2.912-27.116c0-9.589,1.004-18.783,2.984-27.328
				c1.952-8.437,4.864-15.909,8.653-22.209c3.697-6.147,8.293-11.055,13.659-14.588c5.219-3.434,11.333-5.175,18.171-5.175
				c6.935,0,13.123,1.765,18.39,5.245c5.413,3.579,10.009,8.486,13.661,14.586c3.738,6.247,6.625,13.697,8.582,22.14
				c1.98,8.554,2.984,17.748,2.984,27.328c0,9.39-0.98,18.463-2.912,26.965c-1.911,8.402-4.776,15.879-8.516,22.222
				c-3.655,6.198-8.254,11.178-13.667,14.803C963.924,608.172,957.866,609.909,950.737,609.909z"/>
		</g>
	</g>
</g>
<linearGradient id="SVGID_00000172403389566227777570000017666414410936959904_" gradientUnits="userSpaceOnUse" x1="4006.3762" y1="4113.624" x2="1646.6577" y2="1753.9055">
	<stop  offset="0" style="stop-color:#3AB54A"/>
	<stop  offset="0.2959" style="stop-color:#3AA247"/>
	<stop  offset="0.7259" style="stop-color:#3A8B44"/>
	<stop  offset="1" style="stop-color:#3A8343"/>
</linearGradient>
<polygon style="fill:url(#SVGID_00000172403389566227777570000017666414410936959904_);" points="4060,1936.812 4060,4060 
	1722.316,4060 759.133,3096.817 1370.917,2029.646 1979.9,2029.646 1979.372,2030.563 1979.9,2030.563 2148.111,2191.153 
	2391.27,1766.077 2241.12,1615.927 2240.998,1615.927 3086.29,963.102 3086.65,963.461 "/>
<polygon style="fill:#FFFFFF;" points="1979.9,2029.646 1979.372,2030.563 1764.151,2405.985 1367.982,3097.043 759,3097.043 
	759.133,3096.817 1370.917,2029.646 "/>
<polygon style="fill:#E6E6E6;" points="2541.989,2567.19 1933.007,2567.19 1764.151,2405.985 1370.917,2030.563 1979.9,2030.563 
	2148.111,2191.153 "/>
<polygon style="fill:#FFFFFF;" points="3086.482,1615.341 3086.145,1615.927 2541.989,2567.19 1933.007,2567.19 2148.111,2191.153 
	2477.162,1615.927 2477.499,1615.341 "/>
<polygon style="fill:#FFFFFF;" points="3301,1615.927 2240.998,1615.927 2241.068,1615.874 2439.149,1462.893 3086.29,963.102 
	3086.482,962.957 3086.65,963.461 "/>
</svg>
