<svg id="Glyph" enable-background="new 0 0 48 48" viewBox="0 0 48 48" xmlns="http://www.w3.org/2000/svg"><g><path d="m31 29c0-3.31152-1.07745-6.19037-2.76404-8h-8.47192c-1.68659 1.80963-2.76404 4.68848-2.76404 8s1.07745 6.19037 2.76404 8h8.47192c1.68659-1.80963 2.76404-4.68848 2.76404-8zm-7.73193-1.26318 2.03857.61084c1.01318.3042 1.69336 1.21923 1.69336 2.27636 0 1.18134-.86908 2.15625-2 2.33795v1.03803c0 .55225-.44775 1-1 1s-1-.44775-1-1v-1h-1c-.55225 0-1-.44775-1-1s.44775-1 1-1h2.62402c.20752 0 .37598-.16846.37598-.37598 0-.16748-.10791-.3125-.26807-.36084l-2.03857-.61084c-1.01318-.3042-1.69336-1.21923-1.69336-2.27636 0-1.18134.86908-2.15625 2-2.33795v-1.03803c0-.55225.44775-1 1-1s1 .44775 1 1v1h1c.55225 0 1 .44775 1 1s-.44775 1-1 1h-2.62402c-.20752 0-.37598.16846-.37598.37598 0 .16748.10791.3125.26807.36084z"/><path d="m16.6181 37-1.00012-2h-7.23596l-1.00012 2z"/><path d="m33 25h6v8h-6z"/><path d="m16.6181 21h-9.2362l1.00012 2h7.23596z"/><path d="m9 25h6v8h-6z"/><path d="m42 39h-36c-.55231 0-1 .44769-1 1v2c0 .55225.44769 1 1 1h36c.55231 0 1-.44775 1-1v-2c0-.55231-.44769-1-1-1z"/><path d="m40.6181 21h-9.2362l1.00012 2h7.23596z"/><path d="m42.40625 13.08643-18-8c-.25879-.11523-.55371-.11523-.8125 0l-18 8c-.36084.16015-.59375.51855-.59375.91357v5h38v-5c0-.39502-.23291-.75342-.59375-.91357zm-23.40625 3.91357h-4c-.55225 0-1-.44775-1-1s.44775-1 1-1h4c.55225 0 1 .44775 1 1s-.44775 1-1 1zm5-1c-1.6543 0-3-1.3457-3-3s1.3457-3 3-3 3 1.3457 3 3-1.3457 3-3 3zm9.07275 1h-4c-.55225 0-1-.44775-1-1s.44775-1 1-1h4c.55225 0 1 .44775 1 1s-.44775 1-1 1z"/><path d="m40.6181 37-1.00012-2h-7.23596l-1.00012 2z"/><circle cx="24" cy="13" r="1"/></g></svg>