<svg id="Solid" height="512" viewBox="0 0 64 64" width="512" xmlns="http://www.w3.org/2000/svg"><path d="m20 14v-1a1 1 0 0 1 1-1h4a1 1 0 0 1 1 1v1h12v-1a1 1 0 0 1 1-1h4a1 1 0 0 1 1 1v1a4 4 0 0 0 4-4v-2a3 3 0 0 0 -3-3h-7v-2a3 3 0 0 0 -3-3h-6a3 3 0 0 0 -3 3v2h-7a3 3 0 0 0 -3 3v2a4 4 0 0 0 4 4zm8-11a1 1 0 0 1 1-1h6a1 1 0 0 1 1 1v2h-8z"/><path d="m40 14h2v2h-2z"/><path d="m22 14h2v2h-2z"/><path d="m23.2 48.038a2.5 2.5 0 0 0 -3.52-.309l-5.366 4.5a2.5 2.5 0 0 0 -.314 3.52 2.5 2.5 0 0 0 3.52.309l5.365-4.5a2.5 2.5 0 0 0 .315-3.52z"/><path d="m35.258 56.19a2.5 2.5 0 0 0 -3.52-.309l-3.833 3.219a2.5 2.5 0 0 0 -.309 3.521 2.5 2.5 0 0 0 3.521.309l3.832-3.214a2.5 2.5 0 0 0 .309-3.526z"/><path d="m19.155 45.555a2.5 2.5 0 0 0 .309-3.521 2.5 2.5 0 0 0 -3.521-.308l-4.6 3.856a2.5 2.5 0 0 0 -.308 3.521 2.5 2.5 0 0 0 3.52.309z"/><path d="m28.461 52.756a2.5 2.5 0 0 0 -3.521-.308l-3.833 3.213a2.5 2.5 0 0 0 3.212 3.83l3.833-3.213a2.5 2.5 0 0 0 .309-3.522z"/><path d="m36.235 61.244-2.951 2.473a2.483 2.483 0 0 0 3.5-3.033 4.5 4.5 0 0 1 -.549.56z"/><rect height="5" rx="1" transform="matrix(.174 -.985 .985 .174 -27.749 30.647)" width="24" x="-7.612" y="29.358"/><path d="m52.4 45.224-9.882-6.541a11 11 0 0 1 -5.975-.411 10.335 10.335 0 0 1 -5.646-4.85l-3.207.652-1.254 1.9a5.006 5.006 0 0 1 -6.929 1.41 4.005 4.005 0 0 1 -1.128-5.544l3.536-5.34a4.98 4.98 0 0 1 2.207-1.84l5.322-2.269a8.975 8.975 0 0 0 -4.847-.6l-11.29 1.726-2.792-.492-3.515 19.909.826.145a13.064 13.064 0 0 0 1.238 2.169 4.482 4.482 0 0 1 .99-1.2l4.6-3.858a4.485 4.485 0 0 1 7.1 4.987 4.467 4.467 0 0 1 4 4.774 4.459 4.459 0 0 1 5.259 4.01 4.471 4.471 0 0 1 6.787 4.38l.786.519a2.5 2.5 0 0 0 2.76-4.169l-6.255-4.14a1 1 0 1 1 1.1-1.667l7.922 5.243a2.5 2.5 0 1 0 2.76-4.169l-7.923-5.244a1 1 0 1 1 1.1-1.668l9.589 6.348a2.5 2.5 0 1 0 2.76-4.17z"/><rect height="24" rx="1" transform="matrix(.985 -.174 .174 .985 -4.627 10.837)" width="5" x="57.113" y="19.859"/><path d="m50.692 23.512-11.292-1.726a9 9 0 0 0 -4.889.618l-9.604 4.096a3.01 3.01 0 0 0 -1.325 1.1l-3.532 5.339a2 2 0 0 0 .564 2.772 3 3 0 0 0 4.157-.846l1.712-2.586 4.776-.972a.984.984 0 0 1 1.1.547 8.3 8.3 0 0 0 4.864 4.537 9 9 0 0 0 5.66.137 8.951 8.951 0 0 0 2.274-1.064v-.006l.843-.541a1 1 0 1 1 1.09 1.677l-.839.545a11.092 11.092 0 0 1 -1.328.738l8.581 5.68a4.438 4.438 0 0 1 1.467 1.643 13.055 13.055 0 0 0 1.2-2.116l.829-.15-3.515-19.914z"/><path d="m25.958 19.683a10.949 10.949 0 0 1 4.313.88l1.729.737 1.729-.737a10.949 10.949 0 0 1 4.313-.88 11.134 11.134 0 0 1 1.662.126l8.296 1.268v-6.617a5.969 5.969 0 0 1 -4 1.54v1a1 1 0 0 1 -1 1h-4a1 1 0 0 1 -1-1v-1h-12v1a1 1 0 0 1 -1 1h-4a1 1 0 0 1 -1-1v-1a5.969 5.969 0 0 1 -4-1.54v6.617l8.3-1.267a11 11 0 0 1 1.658-.127z"/></svg>