<svg xmlns="http://www.w3.org/2000/svg" version="1.1" xmlns:xlink="http://www.w3.org/1999/xlink" width="512" height="512" x="0" y="0" viewBox="0 0 512 512" style="enable-background:new 0 0 512 512" xml:space="preserve" class=""><g><linearGradient id="a" x1="-.006" x2="512.005" y1="257.009" y2="257.009" gradientUnits="userSpaceOnUse"><stop stop-opacity="1" stop-color="#00b8d1" offset="0"></stop><stop stop-opacity="1" stop-color="#ffffff" offset="1"></stop></linearGradient><path fill="url(#a)" fill-rule="evenodd" d="m312.911 140.075 33.048-57.243a6 6 0 0 1 10.392 6L323.3 146.075a5.993 5.993 0 0 1-5.2 3 5.923 5.923 0 0 1-2.991-.8 6 6 0 0 1-2.2-8.2zm-155.462-44.53a6 6 0 0 1 10.392-6l33.048 57.242a6 6 0 0 1-2.2 8.2 5.982 5.982 0 0 1-8.189-2.2zM250 130.032v-66.1a6 6 0 1 1 12 0v66.1a6 6 0 0 1-12 0zm200.68 139.112a4.316 4.316 0 1 1 4.32-4.316 4.325 4.325 0 0 1-4.321 4.316zm0-20.633A16.317 16.317 0 1 0 467 264.828a16.334 16.334 0 0 0-16.321-16.317zM59.211 269.144a4.316 4.316 0 1 1 4.321-4.316 4.315 4.315 0 0 1-4.321 4.316zm0-20.633a16.317 16.317 0 1 0 16.321 16.317 16.336 16.336 0 0 0-16.321-16.317zm440.451 21.312a4.1 4.1 0 0 0 .056-3.113l-47.27-119.489a4.082 4.082 0 0 0-5.279-2.288l-57.662 22.8a4.105 4.105 0 0 0-2.287 5.287l47.26 119.49a4.076 4.076 0 0 0 5.288 2.287l57.662-22.807a4.071 4.071 0 0 0 2.232-2.17zM367.743 288.63l-59.3-34.227a35.033 35.033 0 0 0-27.618-3.585c-17.52 4.769-34.86 10-51.511 15.543a5.964 5.964 0 0 0-.759.311c-19.718 9.722-35.11 6.326-47.978-10.764A336.834 336.834 0 0 0 247.82 205.5a75.286 75.286 0 0 1 73.209-2.184c13.312 8.109 33.581 5.307 61.884-8.557l37.317 94.338L381.1 306.6a28.242 28.242 0 0 0-13.359-17.968zm-.043 32.652a16.31 16.31 0 0 0-5.958-22.255L302.453 264.8a23.142 23.142 0 0 0-18.472-2.4c-17.18 4.669-34.161 9.788-50.492 15.222-26.878 13.08-49.93 5.986-66.648-20.529a6 6 0 0 1 2.189-8.458 326.122 326.122 0 0 0 70.9-52.209 6.019 6.019 0 0 1 .5-.429c-15.665-5.033-33.567-4.6-53.4 1.358a54.823 54.823 0 0 1-39.92-2.849l-15.147-7.009L92.4 287.5l5.528 2.25a15.97 15.97 0 0 1 9.981 13.9c.09 1.547.35 3.787.651 6.377a28.413 28.413 0 0 1 9.562-4.6 28.18 28.18 0 0 1 33.039 15.566 28.288 28.288 0 0 1 51.011 21.36 28.029 28.029 0 0 1 18.726 3.391 28.345 28.345 0 0 1 13.869 28.425 28.144 28.144 0 0 1 19.3 3.3 27.606 27.606 0 0 1 3.269 2.212l27.571 15.633.019-.034c.34.2.66.4.991.609l3.283 1.859a16.421 16.421 0 0 0 22.3-5.939 16.366 16.366 0 0 0-5.958-22.255l-30.882-17.827a6 6 0 0 1 6-10.392l30.878 17.821s.01 0 .01.01l7.731 4.462a16.294 16.294 0 0 0 16.293-28.223l-34.742-20.061a6 6 0 1 1 6-10.392l34.736 20.057 3.873 2.236a16.365 16.365 0 0 0 22.26-5.967zm-82.809 106.654a16.307 16.307 0 0 1-22.25 5.963l-6.359-3.67 8.146-14.109a28.156 28.156 0 0 0 3.67-16.543l11.392 6.458a16.3 16.3 0 0 1 5.4 21.9zm-45.76 8a16.3 16.3 0 0 1-28.231-16.288l14.92-25.84a16.293 16.293 0 0 1 28.213 16.307l-14.9 25.826zm-48.52-14.731a16.266 16.266 0 0 1-18.322-23.86l20.35-35.246a16.294 16.294 0 1 1 28.223 16.301l-5.439 9.425-14.911 25.826a16.16 16.16 0 0 1-9.9 7.562zM152 398.917a16.272 16.272 0 0 1-18.331-23.86l16.27-28.18s.009 0 .009-.009l10.288-17.831a16.3 16.3 0 0 1 28.232 16.293L161.9 391.35a16.171 16.171 0 0 1-9.9 7.567zm-50.982-23.9a16.37 16.37 0 0 1-5.958-22.256l16.269-28.18a16.294 16.294 0 0 1 28.223 16.293l-16.274 28.18a16.314 16.314 0 0 1-22.26 5.963zM72.23 294.8a4.087 4.087 0 0 0 5.293-2.287l47.256-119.49a4.1 4.1 0 0 0-2.288-5.287l-57.662-22.8a3.9 3.9 0 0 0-1.476-.283 4.1 4.1 0 0 0-3.8 2.571L12.28 266.71a4.1 4.1 0 0 0 .062 3.113 4.05 4.05 0 0 0 2.231 2.17zm391.378-151.994a16.084 16.084 0 0 0-20.859-9.034L385.1 156.58a16.1 16.1 0 0 0-9.043 20.859l2.42 6.108c-24.208 11.977-41.94 15.265-51.332 9.449a3.671 3.671 0 0 0-.368-.217 87.406 87.406 0 0 0-72.082-3.958c-20.477-9.991-44.388-10.991-71.115-2.962a42.6 42.6 0 0 1-31.42-2.236q-7.232-3.348-15.831-7.326a16.079 16.079 0 0 0-9.43-19.717l-57.65-22.808a16.089 16.089 0 0 0-20.859 9.034L1.129 262.3a16.093 16.093 0 0 0 9.029 20.859l57.662 22.802a16.07 16.07 0 0 0 20.062-7.349l5.519 2.255a3.888 3.888 0 0 1 2.528 3.519c.123 1.948.41 4.476.764 7.4.4 3.472.887 7.689 1.208 12.052l-13.232 22.92a28.281 28.281 0 0 0 35.114 40.365 28.187 28.187 0 0 0 35.317 23.383 29.125 29.125 0 0 0 3.3-1.1 28.23 28.23 0 0 0 27.907 24.382 28.382 28.382 0 0 0 10.712-2.094 30.055 30.055 0 0 0 .689 3.42 28.277 28.277 0 0 0 51.808 6.83l.764-1.321 6.359 3.671a28.27 28.27 0 0 0 41.288-32.417 28.161 28.161 0 0 0 27.091-34.18c.788.066 1.571.114 2.358.114a28.245 28.245 0 0 0 27.35-35.605c-.071-.279-.16-.543-.236-.812a28.6 28.6 0 0 0 6.416-.953 28.128 28.128 0 0 0 17.194-13.158 28.414 28.414 0 0 0 3-7.543l43.911-19.647a16.076 16.076 0 0 0 19.166 5.868l57.662-22.807a16.083 16.083 0 0 0 9.028-20.859z" opacity="1" data-original="url(#a)" class=""></path></g></svg>