<svg xmlns="http://www.w3.org/2000/svg" viewBox="0 0 600 400" width="600" height="400">
  <rect width="600" height="400" fill="#f1f4f8"></rect>
  
  <g fill="#0a1a2f">
    <rect x="40" y="180" width="60" height="220"></rect>
    <rect x="110" y="120" width="80" height="280"></rect>
    <rect x="200" y="200" width="50" height="200"></rect>
    <rect x="260" y="80" width="100" height="320"></rect>
    <rect x="370" y="160" width="70" height="240"></rect>
    <rect x="450" y="100" width="90" height="300"></rect>
    <rect x="550" y="220" width="40" height="180"></rect>
  </g>
  
  <g fill="#c9a14a" opacity="0.55">
    <circle cx="60" cy="220" r="2"></circle><circle cx="80" cy="220" r="2"></circle>
    <circle cx="60" cy="260" r="2"></circle><circle cx="80" cy="260" r="2"></circle>
    <circle cx="130" cy="160" r="2"></circle><circle cx="150" cy="160" r="2"></circle><circle cx="170" cy="160" r="2"></circle>
    <circle cx="130" cy="200" r="2"></circle><circle cx="150" cy="200" r="2"></circle><circle cx="170" cy="200" r="2"></circle>
    <circle cx="130" cy="240" r="2"></circle><circle cx="170" cy="240" r="2"></circle>
    <circle cx="290" cy="120" r="2"></circle><circle cx="310" cy="120" r="2"></circle><circle cx="330" cy="120" r="2"></circle>
    <circle cx="290" cy="160" r="2"></circle><circle cx="330" cy="160" r="2"></circle>
    <circle cx="290" cy="200" r="2"></circle><circle cx="310" cy="200" r="2"></circle>
    <circle cx="480" cy="140" r="2"></circle><circle cx="500" cy="140" r="2"></circle><circle cx="520" cy="140" r="2"></circle>
    <circle cx="480" cy="180" r="2"></circle><circle cx="520" cy="180" r="2"></circle>
  </g>
  
  <rect x="0" y="398" width="600" height="2" fill="#c9a14a"></rect>
</svg>