<?xml version="1.0" encoding="UTF-8"?>
<svg id="Layer_1" xmlns="http://www.w3.org/2000/svg" version="1.1" viewBox="0 0 938.4 291.8">
  <!-- Generator: Adobe Illustrator 30.5.0, SVG Export Plug-In . SVG Version: 2.1.4 Build 167)  -->
  <defs>
    <style>
      .st0 {
        fill: #24ce80;
      }
    </style>
  </defs>
  <path class="st0" d="M446.7,117.6c.2.4,2.9.7,8,.9,5.1.2,11.4.3,19.1.3,7.4-.2,13.7-.2,18.9,0,5.2.2,7.8.5,7.8.9,0,.6.6.6,1.9,0,.5-.2,1.7-.4,3.5-.5,1.9-.1,3.8-.2,5.9-.2s4.1.1,6.1.3c2,.2,3.2.4,3.7.6.5.4,2.3.2,5.6-.6,3.2-.8,4.8-.9,4.8-.3s1.5.7,4.6.8c3.1.1,6.9.3,11.3.5,4.5,0,8.9.1,13.4.3,4.5.2,7.7.4,9.6.6,5.2.4,10.3.8,15.2,1.3,4.9.4,10,.8,15.2,1.1,5.2.3,10.9.6,17.1.8,6.2.2,13.2.4,21.2.6,4.9.4,9.4.7,13.4.9,4,.2,6.2.4,6.7.6.7.2,1.7.4,2.8.6,1.1.2,2.3.4,3.5.6,1,.2,2.3.4,4.1.5,1.7.1,3.3.4,4.8.8,1.5.2,3.5.4,5.9.6,2.5.2,4.7.4,6.7.6,2,0,4.3.1,7.1.3,2.7.2,4.9.4,6.7.6,1.7.2,3.9.5,6.5.8,2.6.3,4.9.6,6.9.8,2,.2,4,.4,6.1.6,2.1.2,3.5.4,4.3.6,1,.2,2.4.4,4.3.5,1.9.1,3.8.3,5.8.5,2,.4,3.9.7,5.8.9,1.9.2,3.2.4,3.9.6,1,.2,2.5.4,4.5.5,2,.1,4.1.4,6.3.8,3.7.4,8,.9,13,1.6,4.9.6,10,1.4,15,2.2,5.1.8,10,1.6,14.7,2.4,4.7.7,8.5,1.4,11.5,2,3.7.8,8.7,2,14.8,3.6,6.2,1.6,12.3,3.1,18.4,4.7,6.1,1.6,11.3,3,15.8,4.4,4.5,1.4,6.8,2.1,7.1,2.4.5.4,1.6,1,3.3,1.9,1.7.8,3.7,1.8,5.9,2.8,2.2,1,4.4,2,6.5,3,2.1.9,3.4,1.7,3.9,2.4,1.7,1,2.8,1.6,3.3,1.6.7,0,2.4.9,5,2.8,2.6,1.9,5.5,4.1,8.7,6.6,2.7,2.3,4.6,3.5,5.6,3.5s1.9,1.3,3.3,3.8c1.5,2.5,3,5.9,4.5,10,1.2,3.6,1.5,7.4.9,11.5-.6,4.1-1.9,6.4-3.9,7.1-1.5.4-3.8,0-7.1-1.4-3.2-1.4-6.6-3.3-10-5.8-2.5-1.9-5.4-3.8-8.9-5.8-3.5-2-7-3.9-10.6-5.6-3.6-1.8-6.9-3.2-9.8-4.4-3-1.1-5.2-1.7-6.7-1.7s-1.5-.4-1.5-1.3-1.1-1.3-3.3-1.3-3.8-.4-4.8-1.3c-.5-.4-1.9-1-4.1-1.7-2.2-.7-4.8-1.6-7.8-2.5-3-.9-6-1.8-9.1-2.7-3.1-.8-5.8-1.5-8-1.9-2.2-.4-4.1-.9-5.6-1.4-1.5-.5-2.2-1-2.2-1.4,0-.6-.7-.7-2.2-.3-1.5.4-3,0-4.6-1.3-1.6-1.3-1.8-2.1-.6-2.5,1-.6.5-.7-1.5-.3-2.2.8-3.3.6-3.3-.6s-1.2-1.3-3.7-1.3-3.7-.4-3-1.3c.5-.6,0-1.3-1.7-1.9-1.6-.6-2.8-.6-3.5,0-.5.4,0,1,1.5,1.9,1.2.8,1.4,1.3.4,1.3s-2.1-.4-2.6-1.3c-.7-.8-2-1-3.7-.6-1.7.6-1.6.2.4-1.3,1.7-1,1.9-1.8.4-2.2-1.2-.6-2.4-.5-3.3.3-.5.8-1.4,1.3-2.6,1.3s-.9-.4.4-1.3c1.5-.6.9-1.3-1.9-1.9-2.7-.4-4.6-.4-5.6,0-1,.4-1.5.1-1.5-.9s-.4-1.3-1.1,0c-1,1.3-1.7,1.4-2.2.3-.2-.4-1-.8-2.2-1.3-1.2-.4-2.6-.7-4.1-.9-4,0-6.2-.2-6.7-.6-.5,0-.9,0-1.3-.2-.4-.1-.8-.2-1.3-.2s-1.5-.2-3-.6c-1.5-.4-3.1-.8-4.8-1.3-2-.4-3.9-.7-5.8-.9-1.9-.2-3.2-.2-3.9,0-2,.4-3.3-.1-4.1-1.6-1.2-1.5-2.2-1.6-3-.3-1,1.5-1.5,1.6-1.5.3s-.7-1.4-2.2-.9c-1.7.4-2.6.2-2.6-.6s-.5-1.3-1.5-1.3-1.5.6-1.5,1.9-.7,1.7-2.2,1.3c-1.5-.4-1.6-1-.4-1.9,1.5-.8,1.6-1.3.4-1.3s-2-.2-4.5-.6c-2,0-3.3.4-4.1,1.3-.7,1-1.1.7-1.1-.9s-.5-2.2-1.5-2.2-1.5.7-1.5,2.2c-.2,1.5-.9,1.3-1.9-.6-.5-1.3-1.1-2-1.7-2.4-.6-.3-1.9-.3-3.9.2-1.2.2-2.9.2-5-.2-2.1-.3-3.9-.7-5.4-1.1-3.7-1-6.1-1.4-7.1-.9-.5.4-.7.2-.7-.6s-.5-1.6-1.5-1.6c-1.5,0-1.7.4-.7,1.3.5,1,0,1.5-1.3,1.4-1.4-.1-2.5-.7-3.5-1.7-.7-.4-1.4-.6-2-.6s-1.5.5-2.8,1.6c-1.5,1-2.4,1.6-2.6,1.6s-.1-.8.4-2.5c.5-1.3.7-1.9.6-1.9s-.7.5-1.7,1.6c-1,1.5-2,1.7-3,.6-1-1.5-1.5-1.3-1.5.6s-.6,1.9-1.9.6c-1.5-1.7-3.8-3-7.1-4.1-3.2-1-5.1-1-5.6,0-.5,1-1.7,1.2-3.7.3-2-.8-3-1-3-.6,0,.6-.6.4-1.9-.6-1.7-1-4-1.4-6.7-.9-2.7.4-4,1.3-3.7,2.5,0,1.5-.4,2.2-1.1,2.2s-1.5-1-1.5-3.1c0-3.6-1.5-4.1-4.5-1.6-1.2,1-1.6,1-1.1,0,0-.8-.4-1.3-1.1-1.3-1.2,0-1.6.4-1.1,1.3,0,.8-.6.5-1.9-.9-1.5-1.3-2.2-1.8-2.2-1.6,0,.6-1.1.5-3.3-.3-2.5-1.3-3.2-1.4-2.2-.3.7,1,.6,1.6-.4,1.6s-1.9.9-1.9,2.8-.1,2-.4,1.7c-.2-.3-.9-1.8-1.9-4.6-.5-1-1.5-1-3,0-1.5,1-2,.9-1.5-.3.7-1.5-.6-2.3-4.1-2.5-1.2-.2-2.5-.3-3.7-.2-1.2.1-2,.4-2.2.8-.7,1.3-1.1,1.3-1.1,0s-1-1.7-3-1.9c-2-.2-3.7.2-5.2,1.3-1.7,1.5-3,1.7-3.7.6-.7-1-2.5-1.8-5.2-2.2-2.7-.4-4.3-.2-4.8.6-.5.4-1.9.3-4.1-.3-1.2-.8-2.2-1.2-2.8-1.1-.6.1-1.4.7-2.4,1.7-1.5,2.1-2.2,2-2.2-.3s-1-2.3-3-1.3c-2.2,1-3.2.5-3-1.6,0-.6-.5-.9-1.5-.9s-1.5.5-1.5,1.6-.9,1.8-2.8,1.7c-1.9-.1-3-.8-3.5-2l-.7-1.6-.4,1.6c0,1-1.7,1.8-5,2.2-3.3.4-6.4.1-9.1-.9-1.5-.6-2.1-1-1.9-1.1.2-.1,1.5-.3,3.7-.5,2,0,2.5-.1,1.7-.3-.9-.2-2.9-.4-6.1-.6-2.7-.4-5.3-.6-7.6-.6s-3.8.2-4.3.6c-1,.4-1.4.7-1.3.8.1.1.8.2,2,.2,3-.2,5.3-.2,7.1.2,1.7.3,2.3.7,1.9,1.1-.2.4-1,.6-2.2.6s-2.6,0-4.1-.2c-1.5-.1-2.9-.4-4.3-.8-1.4-.4-2.2-.8-2.4-1.3-.7-.8-1.1-.8-1.1,0s-1.7,1-5.2,1.3c-3.5.2-9.5.3-18.2.3s-11.9,0-16.5-.2c-4.6-.1-6.9-.4-6.9-.8s.9-.4,2.8-.5c1.9-.1,4-.2,6.5-.2,5.9,0,9.5-.3,10.8-.8,1.2-.5-.6-1-5.6-1.4-3-.2-6.4-.3-10.4-.3s-7.7,0-11.1.2c-3.5.1-6.4.3-8.9.6-2.5.3-3.7.7-3.7,1.1,0,.8.7,1,2.2.6,1.2-.4,2.6-.2,4.1.6,2,.8,1.1,1.3-2.6,1.3s-5.1-.7-5.6-2.2l-.7-1.6v1.6c-.2,1-1,1.7-2.2,1.9-1.2.2-4.3.3-9.3.3s-7.1-.2-8.7-.5c-1.6-.3-2.4-.8-2.4-1.4,0-1-3.6-1.6-10.8-1.6s-5.1,0-7.2.2c-2.1.1-3.2.4-3.2.8s-.6.4-1.9.5c-1.2.1-2.6.2-4.1.2-4.2-.2-6.1.1-5.6.9.5,1,1.4,1.4,2.6.9,1,0,1.2.2.7.6-.5.8-2,1.3-4.5,1.3-1,.2-1.6.3-1.9.2-.2-.1-.1-.3.4-.5,1.5-.4,1.9-1.1,1.1-2.2-.7-1-2.1-1.5-4.1-1.3-1,.2-2.2.3-3.5.3h-3.9c-1.7,0-2.8.2-3.2.5-.4.3-.4,1-.2,2,.5,1,0,.8-1.5-.6-1-1.3-1.9-1.9-2.8-2-.9-.1-2.3,0-4.3.5-1.2.4-3.5.7-6.7.9-3.2.2-6.4.3-9.6.3-8.2.4-12.4,1.2-12.6,2.2-.7,1-1.9,1.6-3.3,1.6s-2-.4-1.5-1.3c.5-.8.4-1.3-.4-1.4-.7-.1-1.5.2-2.2.8-.5.4-1.4.7-2.6.8-1.2.1-2.6.3-4.1.5-3.5.2-5.4.4-5.9.6-.5.2-.1.9,1.1,2.2,1,1,1.5,1.6,1.5,1.7s-.6,0-1.9-.5c-.5-.2-.9-.3-1.1-.3s-.6-.1-1.1-.3c-.5,0-.9-.1-1.1-.3-.7,0-.6-.7.4-2.2.5-1.7.2-2.1-.7-1.3-1.2.4-4.7.8-10.4,1.3-2.7.4-5.2.7-7.4.9-2.2.2-3.6.4-4.1.6-1.7.6-2.3,1.7-1.7,3.3.6,1.6,1.9,2.3,3.9,2,3.7,0,7.5-.3,11.5-.8,4-.5,5.8-1,5.6-1.4-.2-.2.4-.4,2-.5,1.6-.1,3.8-.2,6.5-.2s7.7-.1,11.9-.3c4.2-.2,8.2-.5,11.9-.9,3.7-.4,6.9-.8,9.5-1.3,2.6-.4,4-.8,4.3-1.3.7-.8,1.1-.8,1.1,0,0,1.3,1.7,1.7,5.2,1.3,3.2,0,5.8.3,7.8.9,1.2.4,1.9.7,1.9.8s-.7,0-2.2-.5c-2.2-.4-3.3-.2-3.3.6s-.6,1.2-1.9,1.6c-1.2.4-.9.4,1.1,0,.7,0,2.2,0,4.5-.2,2.2-.1,4.6-.2,7.1-.2s5.8-.1,6.9-.3c1.1-.2,1.4-.6.9-1.3-1-1.3-1-1.5,0-.6.7.6,2.2.2,4.5-1.3,1.2-1,2-1.6,2.2-1.6s.1.8-.4,2.5c-1,2.1-1.6,3.2-1.9,3.5,0,.2-.9.4-2.8.5-1.9.1-4.1.3-6.9.5-2.7.2-5.6.4-8.5.6-3,.2-5.2.4-6.7.6-2.5.4-4,.5-4.6.3-.6-.2-.7-.8-.2-1.9.5-1,.7-1.6.6-1.6s-.7.5-1.7,1.6c-1.5,1.3-5.7,2.2-12.6,2.8-3,.2-5.9.5-8.9.8s-5.1.7-6.3,1.1c-3.7,1-2.1,1.3,4.8.6,2.7-.2,5.3-.4,7.8-.6,2.5-.2,5.4-.4,8.9-.6,3.5-.2,8-.5,13.5-.9,5.6-.4,12.9-.9,22.1-1.6,33.9-2.3,40.3-3.2,19.3-2.8-4,.2-7.3.3-10,.2-2.7-.1-4.1-.4-4.1-.8,0-.6,1.4-.9,4.1-.9s3.7-.6,3.7-1.9.7-1.9,2.2-1.9,2.4.4,2.8,1.1c.4.7-.2,1.3-1.7,1.7-1,.2.4.3,4.1.3,2-.2,4.1-.3,6.3-.3s4.1-.1,5.6-.3c3.2,0,4.8-.5,4.8-1.6s1-1,3-1.3c2-.2,5.8-.2,11.5,0,10.4.4,15.8.7,16.3.9.5.2-4,.3-13.4.3-4.7.2-8.5.4-11.5.5-3,.1-4.3.4-4.1.8.5.2,4.3.4,11.5.5,7.2.1,15.7,0,25.6-.2,14.6-.2,24.2-.2,29,0,4.7.2,7.1.6,7.1,1.3,0,1.5.5,1.5,1.5,0,1-1.3,1.2-2.2.7-2.8-.5-.6.1-.9,1.9-.9s1.9-.2,2.8-.5c.9-.3,1.5-.7,2-1.1,1-.6,1.5-.9,1.7-.9s0,.3-.6.9c-.7,1,0,1.6,2.2,1.6s3,.3,1.5.9c-1.5.8-3.2,1-5.2.6-1-.2-1.5-.3-1.7-.2-.1.1,0,.3.6.5,1.2.4,1.6,1,1.1,1.9-.2.2.1.3,1.1.2,1-.1,2.3-.4,4.1-.8,4-.8,7.1-.7,9.3.3,1.2.8,2,1.2,2.2,1.1.2-.1.1-.8-.4-2-.7-1.7-.1-2.5,1.9-2.5s3.6.7,4.1,2.2c.7,1.5.5,1.7-.7.6-1.2-1-2.2-1.6-3-1.6s-.9.5-.4,1.6c.2.6,1,1.2,2.2,1.6,1.2.4,2.6.7,4.1.9,3.7,0,5.4-.2,5.2-.6-.5-.6.2-.9,2.2-.9s3.3.4,3.3,1.3,1.1.4,3.3.6c2.2.2,4.9.4,8.2.6,3.2,0,7.5.1,13,.3,5.4.2,10.4.5,14.8.9,4.5.4,8.6.7,12.4.8,3.8.1,6.2,0,7.2-.2,2.2-.6,4.2-.2,5.9,1.3,1.5,1,3,1.6,4.5,1.7,1.5.1,2.5-.4,3-1.4.5-1.5,1.1-1.7,1.9-.6.5.4.5,1.4,0,2.8-.2.6-.8,1-1.7,1.3-.9.2-3,.3-6.3.3s-8.4-.2-15-.6c-6.7-.4-16-.9-27.8-1.6-5.9-.4-12.6-.8-19.9-1.1-7.3-.3-13.3-.6-18-.8-3.2-.2-7.7-.4-13.5-.5-5.8-.1-12.2-.2-19.1-.2h-40.3c-5.8,0-10.6,0-14.5.2-3.8.1-5.9.2-6.1.2-.5.2-2.2.4-5,.5-2.8.1-6.3.2-10.2.2-3.7.2-7.1.4-10.2.5-3.1.1-4.9.4-5.4.8-.7.2-.9,0-.4-.6.5-1,0-1.6-1.5-1.6s-2.5.4-1.5,1.3c.2.4-.6.7-2.6.8-2,.1-4.5.2-7.4.2-2.7-.2-5.1-.3-7.2-.2-2.1.1-3.2.4-3.2.8,0,.8-1.2,1.1-3.7.8-2.5-.3-3.7-.9-3.7-1.7s-.7-.4-2.2,1.3c-1.5,1.5-2.2,1.7-2.2.6s-.5-1.5-1.5,0c-1,1.3-3.1,1.7-6.3,1.3-3.2-.4-5.6-.2-7.1.6-1.2.6-1.9.4-1.9-.6s-.5-1-1.5,0c-1,1.7-1.5,1.7-1.5,0s-.5-1.5-1.5,0c-.7,1-1.2,1.6-1.3,1.6s-.2-.5-.2-1.6-.5-1.5-1.5,0c-1,1.7-1.5,2-1.5.9s-.7-.5-2.2.3c-1.5,1.3-2.2,1.4-2.2.3s-.6-1.6-1.9-1.6-1.4.4-.4,1.3c.2.8,0,1.3-.7,1.3s-1.5-.4-1.5-1.3-.6-1.5-1.7-1.3c-1.1.2-2.3.8-3.5,1.9-1.2,1-2.8,1.7-4.6,1.9-1.9.2-2.4-.2-1.7-1.3,1-.8.5-1.3-1.5-1.3s-2.2.4-2.2,1.3-.6.7-1.9.8c-1.2.1-2.7,0-4.5-.2-2.5-.2-4-.3-4.6-.2-.6.1-.4.4.6.8,1,.6,1.5,1,1.5,1.1s-.6.3-1.9.5c-1.7,0-2.8-.7-3.3-2.2-.5-1.3-1.9-1.9-4.1-1.9s-2.7.4-2.2,1.3c.7.8.6,1.3-.4,1.3s-1.1.1-1.9.3c-.7.2-1.6.4-2.6.6-2,.6-1.9.1.4-1.6,1.5-1,2.2-1.6,2-1.7-.1-.1-1.5,0-4.3.5-6.7.8-11.9,1.5-15.8,2-3.8.5-6.7,1-8.5,1.4-1.9.4-3,.8-3.5,1.1-.5.3-.7.7-.7,1.1-.2,1-.6,1.3-1.1.6-.5-.8-1.4-1.4-2.8-1.7-1.4-.3-2,0-2,.8s.9,1.5,2.6,2.5c2,1.3,2.2,1.9.7,1.9s-2.1-.6-4.1-1.9c-1.7-1.5-3.4-2.1-5-1.9-1.6.2-3.7,1.4-6.1,3.5l-4.1,3.5v-3.5c0-2.3.6-3.5,1.9-3.5s1.9-.4,1.9-1.3,1-.9,3-.9,2.9-.1,5-.3c2.1-.2,4.3-.5,6.5-.8s4.3-.6,6.1-.9c1.9-.3,3.2-.6,3.9-.8,2.5-.8,4.2-1,5.2-.6,1.5.4,2.2.1,2.2-.9s-1.5-1.3-4.5-.6c-1.2.4-2.5.7-3.9.9-1.4.2-2.7.3-3.9.3-1,.2-2.4.4-4.1.6-1.7.2-3.3.4-4.8.6-1.2.4-2.7.7-4.5.9-1.7.2-3.2.3-4.5.3-2,.2-6.5.9-13.5,2.2-7.1,1.3-18.1,3.2-33.2,6-3.5.8-7.4,1.7-11.9,2.7-4.5.9-8,1.8-10.8,2.7-2.7.8-5.3,1.6-7.6,2.2-2.4.6-3.8.9-4.3.9-.7.2-1.8.5-3.2.8-1.4.3-2.7.7-3.9,1.1-1.2.4-3.2,1-5.9,1.7-2.7.7-5.4,1.5-8.2,2.4-7.2,1.9-13.4,3.7-18.6,5.5-5.2,1.8-7.9,3-8.2,3.6-.5.4-1.1.5-1.9.3-.5-.2-1.9.1-4.3.9-2.4.8-5,1.8-8,3-3,1.2-5.9,2.4-8.7,3.6-2.8,1.3-4.9,2.3-6.1,3.1-1.7,1.3-1,1.6,2.2.9,2.2-.4,3.4-.6,3.5-.6s-.8.4-2.8,1.3c-2,.8-3.6,1.8-4.8,2.8-.7,1-1.1.7-1.1-.9s-.1-1.1-.4-1.6c-.2-.4-.5-.5-.7-.3-8.7,3.6-12.6,5.9-11.9,6.9.5,1.3.2,2.1-.7,2.5-1.5.8-1.7.6-.7-.6.5-.4.6-.7.4-.9-.2-.2-.6-.3-1.1-.3-.7,0-1.8.3-3.2.9-1.4.6-2.6,1.4-3.7,2.2-1.1.8-2,1.6-2.6,2.2-.6.6-.6.9.2.9s.2.6-.7,1.9c-1,1.3-2.5,2.7-4.5,4.4-2,1.7-4,3.5-5.9,5.3-2,1.9-3.5,3.2-4.5,4.1-.7,1-1.7,2.1-2.8,3.1-1.1,1-1.9,1.9-2.4,2.5-1.7,1.5-3.5,3.7-5.2,6.6l-2.2,4.4,4.5-4.7c1.2-1.3,2.5-2.3,3.7-3.1,1.2-.8,2.1-1.2,2.6-.9.5.2.6-.1.4-.9-.5-1,0-2.3,1.7-3.6,1.6-1.4,3.2-2.1,4.6-2.4.5-.2,1.8-.8,3.9-1.9,2.1-1,4.5-2.3,7.2-3.8,4.9-2.7,10.5-5.5,16.5-8.5,6.1-2.9,11.3-5.3,15.8-7.2,11.1-4.6,20.5-8.3,28-11.1,7.5-2.8,14.5-5.2,21-7.1,2.7-1,5.1-1.9,7.1-2.5,2-.6,3.1-1,3.3-1.3.2-.2,1-.4,2.4-.6,1.4-.2,2.8-.4,4.3-.6,4,0,6.3-.5,7.1-1.6,1-.8,2.5-.9,4.5-.3,2.2.6,3,.4,2.2-.6-.7-.8,1-1.3,5.2-1.3s6.2.1,5.9.3c-.2.2-1.7.7-4.3,1.4-2.6.7-5.6,1.6-9.1,2.7-8.7,2.3-17.9,5.1-27.7,8.5-9.8,3.4-19.1,6.8-28,10.4-8.9,3.6-17.1,7.1-24.5,10.5-7.4,3.5-13.2,6.5-17.4,9.3-2.5,1.7-5.3,3.8-8.5,6.4-3.2,2.6-6.4,5.3-9.7,8.2-3.2,2.8-6.2,5.6-8.9,8.3-2.7,2.7-4.7,4.9-5.9,6.6-4,5-6.4,8.8-7.4,11.3-1,2.5-1.1,5-.4,7.5.5,2.1.8,3.2.9,3.3.1.1.3-.7.6-2.4v-3.5l10.4.6c8.9.4,13.4,1.2,13.5,2.4.1,1.1-3.9,3.5-12.1,7.1-6.9,2.9-11.3,4.6-13.2,5-1.9.4-3.4-.2-4.6-1.9-.5-.4-1.3-.9-2.4-1.6-1.1-.6-2.2-1.2-3.2-1.6-2.5-.6-3.5-1.4-3-2.2.5-.6,0-2.3-1.3-4.9-1.4-2.6-2.7-4.2-3.9-4.9-1.2-.4-1.4-1.5-.4-3.1.2-.6.2-1.5-.2-2.5-.4-1-.8-2-1.3-2.8-1.7-1.9-2.3-3.7-1.9-5.3.2-.8.5-2.2.7-4.1.2-1.9.5-3.9.7-6,.2-1.9.7-3.9,1.3-6.1.6-2.2,1.2-3.8,1.7-4.9,1.7-2.5,2.2-3.8,1.5-3.8s-.7-.6.7-1.9c1-1.3,1.2-2,.7-2.2-.5-.6.1-1.5,1.9-2.5,1.5-.8,2.2-1.8,2.2-2.8s.5-1.2,1.5-2.4c1-1.1,2.1-2.4,3.3-3.6,1.2-1.3,2.8-2.8,4.6-4.7,1.9-1.9,3.4-3.5,4.6-4.7,1.2-1.5,2.5-2.8,3.9-3.9,1.4-1.1,2.3-1.9,2.8-2.4.5-.4,1.2-1,2.2-1.7,1-.7,2-1.5,3-2.4,2.7-2.1,5.6-4,8.5-5.7,3-1.7,5.4-2.7,7.4-3.1,1.7-.4,2.5-.5,2.4-.2-.1.3-1.4,1.3-3.9,3-4.2,2.9-6.8,4.8-7.8,5.5-1,.7-.9.9.4.5.5-.4,1.4-.9,2.8-1.6,1.4-.6,2.7-1.4,3.9-2.2,1.2-.8,2.8-1.7,4.6-2.5,1.9-.8,3.4-1.5,4.6-1.9,3.5-1,5.2-2,5.2-2.8s-1.4-.5-4.1.3c-4,1.3-5,1.3-3.2,0,1.9-1.3,5.3-2.9,10.2-5,2.7-1.3,5.1-2.4,7.2-3.3,2.1-.9,3.2-1.6,3.2-2,0-.8.9-1.3,2.6-1.3s1.6.6.4,1.9c-1.2,1.5-1.6,2.4-1.1,2.8.7.2,1.9-.8,3.3-3.1,1.2-2.3,2.3-3.6,3.3-3.9,1-.3,1.7.2,2.2,1.4.7,1,2.5,1,5.2,0,1.2-.4,2.6-.9,4.1-1.6,1.5-.6,2.7-1.1,3.7-1.6,2-1,2.8-1.7,2.6-1.9-.5-.4-1.7-.1-3.7.9-2.2,1.3-3.6,1.5-4.1.6-.5-.2-.3-.5.6-.9.9-.4,1.9-.8,3.2-1.3,1.2-.4,2.3-.8,3.3-1.3,1-.4,1.5-.8,1.5-1.3,0-.6.7-.9,2.2-.9s2.2-.4,2.2-1.3,1-1.6,3.2-1.7c2.1-.1,3.5.4,4.3,1.4.7,1,1.2,1.5,1.3,1.4.1-.1.2-.8.2-2s1.2-2.8,3.7-4.1c2.5-1.3,6.8-2.8,13-4.7,1.5-.4,3.2-.8,5.2-1.1,2-.3,3.8-.5,5.6-.5s3.1.1,4.1.3c1,.2,1.2.5.7.9-.2.2-1.1.5-2.4.9-1.4.4-3,.8-4.8,1.3-1.9.4-3.7.8-5.4,1.1-1.7.3-3.1.5-4.1.5-1.2.4-1.9,1-1.9,1.9s.2,1.3.6,1.3,1.3-.4,2.8-1.3c1-.4,2.4-.9,4.3-1.4,1.9-.5,3.6-1,5.4-1.4,2-.2,3.6-.5,5-.8,1.4-.3,2.2-.7,2.4-1.1.5-.8,1.7-1.3,3.7-1.3s2.5-.3,2.2-.9c-.2-.2,0-.6.7-1.1.7-.5,1.5-1,2.4-1.4.9-.4,1.8-.7,2.8-.9,1-.2,1.6-.2,1.9,0,.5.4-.4,1-2.6,1.9-2.2.8-2.6,1.3-1.1,1.3s3.6-.8,5.6-2.5c1.7-1.9,3-2.1,3.7-.6.5,1.3,2.1,1.4,4.8.3,1.7-.6,2.7-1.1,2.8-1.4.1-.3-.4-.7-1.7-1.1-1.5-.6-.7-.7,2.2-.3,3.7.6,5.1.5,4.1-.3-.5-1,.2-1.8,2.2-2.2,2-.8,3-1.5,3-1.9s.9-.6,2.8-1.1c1.9-.5,4.1-1.1,6.9-1.7,2.7-.6,5.6-1.2,8.5-1.7,3-.5,5.4-.9,7.4-1.1,2.7,0,4.6-.4,5.6-1.3.5-.4,1.3-.6,2.4-.6s2.3.1,3.5.3c2.5.6,4.5.3,5.9-.9,1.5-1.3,3-1.9,4.5-1.9s2.2.5,2.2,1.6.5,2,1.5,2.8c1.5.8,1.7.1.7-2.2-.5-1.7-.5-2.2,0-1.6.5,1.3,1.2,1.8,2.2,1.7,1-.1,1.2-.7.7-1.7-.5-1.5-.4-2.1.2-1.9.6.2,1.8,1.2,3.5,2.8l3,2.8-.4-3.5c-.2-2.1.9-3.2,3.3-3.5,1.7,0,2.7,0,2.8.2.1.1-.6.4-2,.8-2.5,1-1,1.3,4.5.6,2.2-.4,4.1-.7,5.8-.9,1.6-.2,2.5-.4,2.8-.6.2-.4,1.1-.7,2.6-.8,1.5-.1,3.2-.2,5.2-.2,4.9,0,7.8-.6,8.5-1.9,1-1.5,1.5-1.5,1.5,0s.9,1,2.6,0c1.2-1,5.8-1.6,13.7-1.6s11.9-.4,12.6-1.3c.7-1.3,1.1-1.1,1.1.3s.7,1.3,2.2,0c1.7-1,4-1.3,6.7-.6,3.2.8,4.8.7,4.8-.3s1.2-1.3,3.7-1.4c2.5-.1,4,.3,4.5,1.1.7.6,1.5.8,2.2.6.5-.2,1.8-.4,3.9-.6,2.1-.2,4.4-.4,6.9-.6,2.7-.4,5.2-.7,7.4-.8,2.2-.1,3.6-.3,4.1-.5,1.2-.4,1.9-.2,1.9.6s.7,1.2,2.2,1.6c1.5.6,1.9.2,1.1-1.3-.5-1.5-.4-1.9.4-1.3.7.8,1.9.6,3.3-.6,1.2-.8,2-.4,2.2,1.3,0,1.7.2,1.9.7.6.5-1,1.2-1.6,2.2-1.6s1.1.5.4,1.6c-.2.6.1.5,1.1-.3.7-.6,2.1-1.1,4.1-1.4,2-.3,5.1-.5,9.3-.5,3.2.2,6.1.2,8.5,0,2.5-.2,4-.5,4.5-.9,1.2-.8,4.1-1.3,8.5-1.3s8.2.4,11.1,1.3c1.2.4,2.3.7,3.3.8,1,.1,1.5,0,1.5-.5s.4-.4,1.3-.5c.9-.1,1.9-.2,3.2-.2,3.2.4,4.8.1,4.8-.9s.5-.9,1.5-.9,1.2.4.7,1.3c-1,.8-.6,1.3,1.1,1.3s2.5-.5,3-1.6c.2-.8.7-.9,1.5-.3ZM14.6,223.7c0,.8.2,1.3.7,1.3s1-.4,1.5-1.3c.5-.8.2-1.3-.7-1.3s-1.5.4-1.5,1.3ZM22.1,215.8l-1.5,1.6,1.9-1.3c2.7-1.7,3.5-2.5,2.2-2.5s-1.4.7-2.6,2.2ZM33.9,226.8c-2.2,2.3-2.9,3.3-2,3.1.9-.2,2.5-1.4,5-3.5,1.2-1.3,2.3-2.4,3.3-3.3,1-.9,1.5-1.5,1.5-1.7,0-.4-.9,0-2.8,1.3-1.9,1.3-3.5,2.6-5,4.1ZM34.7,236.5c-.5.8-.2,1.3.7,1.3s1.9-.4,1.9-1.3-.2-1.3-.7-1.3-.9.4-1.9,1.3ZM57,219.6c-2,1.5-4.1,3-6.5,4.7-2.4,1.7-4.1,3.1-5.4,4.4-1.5,1-2.8,1.9-4.1,2.7-1.2.7-2,.9-2.2.5-.5-.2.4-1.2,2.6-3,2.2-1.8,4.7-3.7,7.4-5.8,2.7-2.1,5.4-4,8.2-5.7,2.7-1.7,4.5-2.5,5.2-2.5s.2.5-.9,1.4c-1.1.9-2.5,2-4.3,3.3ZM91.8,184.4c-.5.8-1.7,1.3-3.7,1.3s-3.3.7-4.1,2.2c-1.2,1.7-1.9,1.8-1.9.3-.5-1.5-.5-2.4,0-2.8,0-.6-.5-.9-1.5-.9s-1.1.8-1.1,2.5c.2,1.9-1.1,3.2-4.1,4.1-1.2.4-2.7,1-4.3,1.9-1.6.8-2.9,1.7-3.9,2.5-1.2,1-2.8,2.1-4.6,3.1-1.9,1-3.8,1.9-5.8,2.5-3,1.3-5.2,2.5-6.7,3.8-1.5,1.3-1.7,2.3-.7,3.1.5.4,1.4.3,2.6-.5,1.2-.7,2.6-1.6,4.1-2.7,1.7-1,3.5-2,5.4-2.8,1.9-.8,3.4-1.5,4.6-1.9,2.7-.4,4.6-1.3,5.6-2.5,1.5-1.3,2.7-1.9,3.7-1.9s3.1-.8,5.6-2.5c1-.6,2.2-1.3,3.7-1.9,1.5-.6,2.8-1,4.1-1.3,1.7-.4,3.3-1.3,4.8-2.7,1.5-1.4,2.2-2.6,2.2-3.6s-.6-.9-1.7-.8c-1.1.1-1.9.6-2.4,1.4ZM58.1,213.6c0,.8-.7,1.3-2.2,1.3s-2-.4-1.5-1.3c.5-.8,1.2-1.3,2.2-1.3s1.5.4,1.5,1.3ZM165,178.1c0,.2-.5.5-1.5.9-1,.4-2.1.9-3.3,1.4-1.2.5-2.5.9-3.7,1.1-1.2.2-2,.3-2.2.3-.5,0-1.3.2-2.4.5-1.1.3-2.3.8-3.5,1.4-1.2.4-2.3.8-3.2,1.1-.9.3-1.3.3-1.3-.2s-.6,0-1.9.6c-1.2.8-3.6,1.6-7.1,2.2-1.5.2-3.3.6-5.6,1.3-2.2.6-4.3,1.4-6.3,2.2-2,.6-3.9,1.3-5.8,1.9-1.9.6-3.3,1.2-4.3,1.6-.7.2-2,.6-3.9,1.3-1.9.6-3.8,1.4-5.8,2.2-2,.8-4.3,1.8-7.1,2.8-2.7,1-5.2,2-7.4,2.8-2,.8-4.2,1.8-6.7,2.8-2.5,1-4.5,2-5.9,2.8-1.5.6-3,1.3-4.6,2-1.6.7-2.8,1.2-3.5,1.4-1.2.4-1.9.6-2,.5-.1-.1.3-.7,1.3-1.7,1.7-1.5,2.3-2.7,1.9-3.8-.2-.8.1-1.7,1.1-2.5,1-.4,1.2,0,.7,1.3-.5,1-.6,1.7-.2,1.9.4.2,1.5.1,3.5-.3,1.2-.4,2.5-.9,3.9-1.4,1.4-.5,2.7-1.1,3.9-1.7,1-.6,2.7-1.5,5-2.5,2.3-1,4.9-2.1,7.6-3.3,2.7-1.1,5.4-2.2,8-3.1s4.6-1.6,6.1-2c1.7-.2,3.1-1,4.1-2.5.5-1.3,1.9-1.6,4.1-.9,1.5.2,2.3.3,2.4.2.1-.1-.3-.5-1.3-1.1-1-.6-1.4-1-1.3-1.1.1-.1.8,0,2,.5,1.7.2,3.7-.4,5.9-1.9.7-1,1.7-1.7,2.8-2,1.1-.3,2-.4,2.8-.2,2.2.4,2.8.2,1.9-.6-1-1-.4-1.3,1.9-.6,2,.4,3.5.3,4.5-.3,1-.8,2.1-1.3,3.3-1.3,3.2.2,4.9-.6,5.2-2.5,0-.4,0-.7.2-.9.1-.2.3-.1.6.3.2.4.9.7,1.9.8,1,.1,2,.1,3.2,0,1.1-.1,2.2-.3,3.2-.5,1-.2,1.5-.5,1.5-.9,0-.6,1.2-.9,3.7-.9s3.7.3,3.7.9ZM68.1,184.4c.2.2.9.2,2-.2,1.1-.3,2.3-.7,3.7-1.1,1.4-.4,2.6-.9,3.7-1.4,1.1-.5,1.7-1,1.7-1.4s-2-.1-5.9.9c-4,1.5-5.7,2.5-5.2,3.1ZM91.5,180.3c-.2,1,.9.8,3.3-.6,2.5-1.3,3.8-2.1,3.9-2.5.1-.4-.9-.2-3.2.6-2.5.8-3.8,1.7-4.1,2.5ZM93.3,172.2c-.5,1.3-1,1.9-1.5,1.9s-.4-.6-.4-1.9.4-1.9,1.1-1.9,1.2.6.7,1.9ZM276.3,135.4c-2,0-4.2.3-6.7.8-2.5.5-4.3,1-5.6,1.4-1.2.6-2.3,1-3.2,1.3-.9.2-1.3.1-1.3-.3,0-.8-.6-1-1.9-.6-1.5.4-3.8.9-6.9,1.4-3.1.5-5.5.8-7.2.8s-3.3.3-3.3.9-.9,1-2.6.6c-1.5-.2-2.8-.1-4.1.3-.5.2-1.2.4-2,.6-.9.2-1.8.3-2.8.3-11.9,1.3-18.4,2.3-19.7,3.1-.5.4-1.5.8-3,1.1-1.5.3-3.2.7-5.2,1.1-2,.2-3.7.5-5,.8-1.4.3-2.2.7-2.4,1.1-.2.4-1.1.7-2.4.9-1.4.2-2.8.3-4.3.3-3.5.4-5.8.8-7.1,1.3-.5.6-1.9,1.2-4.1,1.6-6.2,1.3-9.3,2.4-9.3,3.5s.6.9,1.9.3c1-.4,2.2-.8,3.7-1.1,1.5-.3,2.9-.6,4.3-.8,1.4-.2,2.5-.2,3.5,0,1,.2,1.5.5,1.5.9,0,.6-1.3,1.3-3.9,1.9-2.6.6-5.6,1-9.1,1.3-3.5.4-5.4.9-5.9,1.6-.5,1-1.5,1.4-3,.9-1.5-.4-2-1.1-1.5-2.2.7-1.3,0-1.8-2.2-1.6-2.2.4-3.6,1.2-4.1,2.2,0,1,.6,1.3,1.9.6,1.7-.2,2.6.2,2.6,1.3s-.5,1.5-1.5,1.9c-1,.4-2,.6-3.2.5-1.1-.1-2.3-.4-3.5-.9-1.2-.5-2-1.2-2.2-2-1-2.1-1.7-2.2-2.2-.3-.7,1.5-.5,2.5.7,3.1.7.4.7.9-.2,1.4-.9.5-2,1.1-3.5,1.7-1.5.6-3,1.1-4.6,1.4-1.6.3-2.8.3-3.5-.2-.5-.2-.9-.3-1.3-.2-.4.1-.3.4.2.8.2.4,0,.8-.7,1.1s-1.5.6-2.4.8c-.9.2-1.9.3-3,.3s-1.9-.1-2.4-.3c-1-.4-1.5-.2-1.5.6s-.7,1.4-2,1.7c-1.4.3-2.7.2-3.9-.5-1.5-.6-1.5-1.5,0-2.5,1.7-.8,1.6-1.3-.4-1.3s-2.3.5-2.4,1.6c-.1,1,.4,2.1,1.7,3.1,1.2,1,1,1.6-.7,1.6s-3.2.6-5.2,1.9c-1.2,1-2.4,1.5-3.3,1.3-1-.2-1.5-1-1.5-2.5s-.5-1.9-1.5-1.9-1.8.4-1.7,1.1c.1.7.8,1.6,2,2.7,1.5,1.3,1.5,2,0,2.2-1.2.4-2.7,1.3-4.3,2.5-1.6,1.3-2.2,2.1-1.7,2.5.2.4,1.4.2,3.3-.6.7-.4,2.6-1.1,5.6-2.2,3-1,6.2-2.1,9.7-3.1,3.5-1,6.4-2,8.9-3,2.5-.9,3.7-1.6,3.7-2,0-.8.6-.9,1.9-.3,1.2.4,2.3.2,3.3-.6.2-.8,1.2-1,3-.6.5.2,1.5.2,3-.2,1.5-.3,3-.7,4.5-1.1,3.5-1.5,5.6-2.1,6.3-1.9.5,0,1.7-.2,3.7-.6.5-.2,1.8-.5,3.9-.9,2.1-.4,4.4-.8,6.9-1.3,2.7-.4,5.1-1,7.2-1.7,2.1-.7,3.4-1.3,3.9-1.7,1.2-1.5,2.2-1.9,3-1.3.5.4,2.3.2,5.6-.6,1.2-.4,2.7-.8,4.3-1.1,1.6-.3,2.8-.5,3.5-.5.7-.2,1.9-.5,3.5-.8,1.6-.3,3.2-.7,4.6-1.1,1.5-.4,2.8-.7,3.9-.9,1.1-.2,1.8-.2,2,0,.5.6,1.5.5,3-.3.7-.4,1.9-.8,3.5-1.1,1.6-.3,3.3-.6,5-.8,1.7-.2,3.5-.4,5.2-.6,1.7-.2,3-.5,3.7-.9,1.7-.4,2.2-.2,1.5.6-.2.8.9.6,3.3-.6,1.2-.6,2.8-1.2,4.6-1.7,1.9-.5,3.8-.8,5.8-.8s4.1-.1,4.8-.3c.7-.2,1-.8.7-1.9-.5-1.5-.1-2.2,1.1-2.2s1.2.4.7,1.3c-.5.8,0,1.3,1.5,1.3s1.7-.4,1.5-1.3c-.2-.6,0-1.3.7-1.9,1-.4,1.5.2,1.5,1.9s.3,2,.9,2.2c.6.2,2.4.1,5.4-.3,2-.2,3.7-.5,5.2-.8,1.5-.3,2.5-.6,3-.8.5-.4,1.2-.6,2-.6h2.8c2,.2,2.8-.5,2.6-2.2-.5-1.9-1-3-1.5-3.5-.2-.4-1.9-.4-4.8,0-3,.4-6.4.9-10.4,1.6-4,.6-7.4,1.1-10.4,1.4s-4.6.4-4.8.2c-.5-.8-1.4-.7-2.6.3-1.5.8-4,1.5-7.4,1.9-1.5.2-2.8.4-4.1.5-1.2.1-2.1.4-2.6.8-.5.2-1.5.4-3.2.5-1.6.1-3.4.3-5.4.5-2,0-4.1.2-6.3.6-2.2.4-3.8.9-4.8,1.6-2.2,1-3.6,1.4-4.1.9-1-.4-2-.2-3,.6-1.2.8-2.7,1-4.5.6-1.5-.4-2.2-.2-2.2.6s-1.2,1.3-3.7.6c-2.5-.4-3.7-.2-3.7.6s-.5,1-1.5.6c-1-.6-1.5-1.3-1.5-1.9s1.5-.7,4.6-1.6c3.1-.8,6.6-1.6,10.6-2.4,4-.7,7.7-1.4,11.1-2,3.5-.6,5.6-.9,6.3-.9,1.2.4,1.9.1,1.9-.9s.4-.8,1.1-.6c.5.2,1.4.3,2.8.2,1.4-.1,2.9-.4,4.6-.8,1.7-.4,3.7-.8,5.9-1.1,2.2-.3,4.2-.6,5.9-.8,1.7-.4,3.4-.7,5-.8,1.6-.1,2.9-.3,3.9-.5,1.5-.2,4-.6,7.6-1.3,3.6-.6,7.4-1.2,11.5-1.7,4.1-.5,7.9-1,11.5-1.4,3.6-.4,6.2-.7,8-.9,4.7-.2,7.1-1,7.1-2.5s-1.4-1.5-4.1-1.3c-1.2.4-3,.7-5.4.9-2.4.2-4.6.4-6.9.6ZM109.7,174.4c.7,1,1.1.8,1.1-.6s-.2-2.3-.7-1.9c-.7.6-.9,1.5-.4,2.5ZM127.1,166.8c-2.7,0-4.1.6-4.1,1.9s.2,1.9.7.6c.5-1,1.2-1.4,2.2-.9.2.2,1.2.2,2.8-.2,1.6-.3,3.3-.7,5.2-1.3,1.9-.5,3.5-1.1,4.8-1.7,1.4-.6,2-1.1,2-1.6s-.5-.5-1.5-.2c-1,.3-2.1.7-3.3,1.1-1.2.6-2.7,1.2-4.5,1.6-1.7.4-3.2.6-4.5.6ZM124.5,163.4c0,.4,1.2.1,3.7-.9,1-.4,1.9-.8,2.6-1.3.7-.4,1.1-.8,1.1-1.3s-.4-.5-1.1-.3c-.7.2-1.6.6-2.6,1.3-2.5,1.5-3.7,2.3-3.7,2.5ZM161.2,159c.5.6,1.2.8,2.2.5,1-.3,1.5-1,1.5-2s-.7-.7-2.2-.3c-1.5.4-2,1-1.5,1.9ZM171.6,174.7c.5,1.7.2,2.1-.7,1.3-.7-.4-1.7.1-3,1.6-1,1.7-1.5,2-1.5.9s.7-1.8,2.2-3.5c1.5-1.5,2.5-1.6,3-.3ZM228.1,164c0,.6,0,1.2-.2,1.7-.1.5-.4.7-.9.5-.7,0-1.9.2-3.3.6-3.7,1-7.4,1.9-10.9,2.7-3.6.7-5.1.9-4.6.5.5-.6.3-.9-.6-.9s-1.8.4-2.8,1.3c-1,.8-3.1,1.5-6.3,1.9-1.2.2-2.7.5-4.5.8-1.7.3-3.1.7-4.1,1.1-2.7,1-4.5,1.3-5.2.6-.5-.4-1.7,0-3.7,1.3-1.5.8-2.4,1.3-2.8,1.3s-.6-.5-.6-1.6c0-3.1,2.3-4.7,7.1-4.7,3.5-.2,7.1-.7,10.8-1.4,3.7-.7,6.4-1.6,8.2-2.7,1.7-1,3.7-1.7,5.9-2,2.2-.3,5.8-.7,10.8-1.1.7-.2,1.5-.4,2.4-.6.9-.2,1.4-.4,1.7-.6,1.2-1,2.2-1.4,2.8-.9.6.4.9,1.3.9,2.5ZM188.3,146.1c-.2.4.5.5,2.2.3.7-.2,1.5-.4,2.2-.6.7-.2,1.2-.5,1.5-.9.2-.6-.5-.7-2.2-.3-2,.4-3.2.9-3.7,1.6ZM199.5,143.6c0,.8.2,1.3.7,1.3s1-.4,1.5-1.3c1-.8.7-1.3-.7-1.3s-1.5.4-1.5,1.3ZM215.4,175.3c-1.7.8-4,1.5-6.7,1.9l-5.6.6,5.6-1.6c6.2-2.1,8.4-2.4,6.7-.9ZM209.5,141.1c-.5.4-.6.7-.2.8.4.1.8,0,1.3-.5,1.2-.4,2-.8,2.4-1.1s0-.5-1.3-.5-1.7.4-2.2,1.3ZM215.1,140.5c.5.6,1.5.7,3,.3,1-.6.6-.9-1.1-.9s-2.4.2-1.9.6ZM223.6,173.4c0,.2-1,.5-3,.9-.7.4-1.4.6-1.9.5-.5-.1-.6-.4-.4-.8.5-.6,1.5-1,3-1.1,1.5-.1,2.2,0,2.2.5ZM228.4,151.5c-1,1.3-1.9,1.6-2.6.9-.5-.6.1-1.1,1.9-1.6,2-.8,2.2-.6.7.6ZM271.9,159c0,.8-.9,1.3-2.6,1.3-.7.2-1.7.3-3,.3s-2.4.1-3.3.3c-2.5.2-3.2,0-2-.8,1.1-.7,3.2-1.3,6.1-1.7,3.2-.4,4.8-.2,4.8.6ZM279.3,158c0,.4-.7.8-2.2,1.3-1.5.4-2.2.3-2.2-.3s.7-1.3,2.2-1.3,2.2.1,2.2.3ZM292.6,158.4c0,1.3-.1,1.9-.4,1.9-.5,0-1-.6-1.5-1.9-.5-1.5-.2-2.2.7-2.2s1.1.7,1.1,2.2ZM297.8,142c-.5.4-.9.8-1.3,1.1s-.7.7-.9,1.1c-.7.6-1.1.3-1.1-.9s.7-2.2,2.2-2.2,1.9.3,1.1.9ZM472.6,125.4c-2.2-.4-4.5-.2-6.7.6-2.2,1-3.3.7-3.3-1.1s-.4-1.7-1.1-1.1c-1,1-11.5,1.5-31.5,1.3-9.6,0-17.1.1-22.5.3-5.3.2-8,.5-8,.9,0,.8-.4.7-1.1-.3-1-1.3-1.7-1.5-2.2-.6-.2.4-2,.7-5.4.8-3.3.1-7,.2-10.9.2s-7.7,0-11.1-.2c-3.5-.1-5.6-.4-6.3-.8-1.2-.6-1.9-.1-1.9,1.6s-1.2,2.3-3.7,1.3c-2.5-.6-3.7-.7-3.7-.3s-1.1.7-3.2.9c-2.1.2-4.5.3-7.2.3-5.7.2-9.5.4-11.5.6-2,.2-3.6.7-4.8,1.6-1.2.6-1.9,0-1.9-1.9s-.1-2.2-.4-2.2-1.1.6-2.6,1.9c-1,1-2,1.7-3.2,2-1.1.3-2.8.3-5-.2-3.5-.4-5.9-.2-7.4.6-1.5.8-3.5,1.3-5.9,1.3-2.7-.4-4.3.1-4.8,1.6-.5.6,0,1,1.3,1.3,1.4.2,4.3.1,8.7-.3,3-.2,6.1-.4,9.3-.6,3.2-.2,5.6-.4,7.1-.6,1.5-.2,3.8-.4,7.1-.6,3.2-.2,6.3-.4,9.3-.6,3.2-.4,6.9-.7,11.1-.9,4.2-.2,7.8-.4,10.8-.6,2.7-.2,5.9-.4,9.6-.6,3.7-.2,6.7-.3,8.9-.3,5.4,0,8.9-.4,10.4-1.3,1.2-.6,1.9-.5,1.9.3s1.4,1,4.1.6c12.4-1.9,18.6-2.5,18.6-1.9s1.9.4,5.8.5c3.8.1,8.5,0,13.9-.2,6.7,0,12.1,0,16.3-.2,4.2-.1,7.5-.2,10-.2s4.4,0,5.8.2c1.4.1,2.5.3,3.5.5,2.2.4,3.6.2,4.1-.6.5-.8,1.9-.7,4.1.3,2,.8,3.3.9,4.1.3.2-.4,1-.7,2.2-.9,1.2-.2,2.6-.4,4.1-.5,1.5-.1,2.8-.1,3.9,0,1.1.1,1.7.4,1.7.8s1,.8,3.2,1.1c2.1.3,4.5.6,7.2.8,3.2.2,5.6.4,7.2.5,1.6.1,3.2.2,4.6.2h4.6c1.6,0,4-.1,7.2-.3,2.7-.2,6.4-.3,10.9-.2,4.6.1,8.6.4,12.1.8,3.5.4,7.7.8,12.8,1.1,5.1.3,9.3.6,12.8.8,3.5,0,6.8.2,10,.5,3.2.3,5.4.7,6.7,1.1,2.5.8,5.1.8,7.8,0,2.7-.4,4.1-.4,4.1,0s.7.4,2.2.6c1.5.2,3.2.2,5.2,0,2,0,4.4.2,7.2.5,2.8.3,5.4.7,7.6,1.1,2,.4,4.6.8,7.8,1.1,3.2.3,6.1.5,8.5.5s4.3.1,6.1.3c1.9.2,3,.4,3.5.6,1,.4,1.5.1,1.5-.9.2-.8.6-.8,1.1,0,.2.4.9.8,1.9,1.1,1,.3,2,.5,3.2.5s2.2-.1,3.2-.3c1-.2,1.6-.5,1.9-.9.7-1-.1-1.9-2.6-2.7-2.5-.7-5.4-1-8.9-.8h-3.9c-1.1,0-1.7-.3-1.7-.8s-1-.9-3-.7c-2,.2-3,.7-3,1.6-.2.8-.9.4-1.9-1.3-1-1.4-2.2-1.6-3.7-.6-1.5,1-2.2,1-2.2,0s-.7-1-2.2-.6c-1.7.6-2.2.4-1.5-.6,1.2-1.2,1-1.5-.7-.9-1.5.8-3.5,1.3-6.1,1.4s-4.1-.3-4.6-1.1c-.7-.8-1.1-.7-1.1.3s-.7,1.2-2.2-.6c-1-1-1.7-1.6-2-1.7-.4,0-.8.4-1.3,1.4-.7,1.8-2.2,2.6-4.5,2.3-2.2-.3-3.7-1.5-4.5-3.5-.5-1.6-.9-2.4-1.1-2.4s-.6.5-1.1,1.5c-.7,2-1.4,1.9-1.9-.3-.5-1.8-1.5-2.7-3-2.7s-1.6.3-.4.9c1.2.6,2.2,1.9,2.8,3.8.6,1.9.4,2.8-.6,2.8s-1.5-.7-1.5-2.2-.4-1.6-1.1-.3c-.2,1.3-1.1,1.3-2.6,0-1.2-.8-2.8-1-4.8-.6-1.5.4-2.8.3-4.1-.3-1.5-1-3.8-1.7-6.9-1.9-3.1-.2-4.6.2-4.6,1.3s-1,1.6-3,1.6-3-.5-3-1.6-1-2.1-3-2.5c-2-.4-3-.2-3,.6s-.5,1.2-1.5.3c-1-.4-1.5-.1-1.5.9s-.4,1.4-1.1.3c-.5-.4-1.6-.8-3.3-1.3-1.7-.4-3.7-.7-5.8-.9-2.1-.2-4-.3-5.6-.3s-2.4.2-2.4.6c0,.8-.5,1.3-1.5,1.3s-1.2-.4-.7-1.3c.2-.4,0-.7-.7-.9-.7-.2-1.7-.3-2.8-.3s-2.3.2-3.5.5c-1.2.3-2.1.7-2.6,1.1-1,.6-1.5.9-1.7.9s0-.3.6-.9c.5-1-.1-1.6-1.9-1.7-1.7-.1-6.4,0-14.1.2-3.7.2-6.5.2-8.4-.2-1.9-.3-3-.7-3.5-1.1-.7-1.5-1.1-1.6-1.1-.3s-3.3,1.6-10,1.6-6.6-.1-7.8-.3c-1.2-.2-2-.7-2.2-1.6v-1.6l-.7,1.6c-.5,1.7-1.9,2.2-4.1,1.6ZM350.5,152.1c.5.4,1.4.4,2.6,0,2-.4,1.7-.6-.7-.6-.7-.2-1.4-.3-1.9-.2-.5.1-.5.4,0,.8ZM355,138c.5,1.3.4,1.9-.4,1.9s-1.7-.6-2.2-1.9c-.5-1.3-.4-1.9.4-1.9s1.7.6,2.2,1.9ZM365.8,142.4c.5.8,0,1.3-1.5,1.3s-2.2-.4-2.2-1.3.5-1.3,1.5-1.3,1.7.4,2.2,1.3ZM370.6,138.3c-1.7.4-3.5.4-5.2,0-1-.4-.1-.6,2.6-.6s3.6.2,2.6.6ZM370.2,142.4c1,.8.7,1.3-.7,1.3s-1.5-.4-1.5-1.3.2-1.3.7-1.3,1,.4,1.5,1.3ZM387.3,139.8c-.5.8-1.1,1.3-1.7,1.4-.6.1-1.1-.3-1.3-1.1,0-.6.6-1.1,1.9-1.6,1.2-.4,1.6,0,1.1,1.3ZM396.6,136.1c0,.8-.5,1.3-1.5,1.3s-1.7-.4-2.2-1.3c-.2-.8.2-1.3,1.5-1.3s2.2.4,2.2,1.3ZM411.8,140.2c0,.2-.6.4-1.9.6-1.2.2-2.6.4-4.1.6-3.7,0-5.4-.2-5.2-.6.2-.2.9-.4,2-.6,1.1-.2,2.3-.4,3.7-.5,1.4-.1,2.6-.1,3.7,0,1.1.1,1.7.3,1.7.5ZM408.4,135.4c0,2.1-.2,2.3-.7.6-.5-1-.5-1.8,0-2.2.2-.4.4-.4.6,0,.1.4.2.9.2,1.6ZM412.1,145.8c1.7.4,3.5.4,5.2,0,.7-.2.9-.4.4-.5-.5-.1-1.5-.2-3-.2s-2.5,0-3,.2c-.5.1-.4.3.4.5ZM416.6,134.2c1.7.4,3.7.4,5.9,0,1.2-.2.4-.3-2.6-.3s-4.3.1-3.3.3ZM428.1,133.6c0,.8.2,1.3.7,1.3s1-.4,1.5-1.3c.7-1,.5-1.6-.7-1.6s-1.5.5-1.5,1.6ZM449.3,134.8c0,.8-.7,1.3-2.2,1.3s-2.2-.2-2.2-.6.7-.8,2.2-1.3c1.5-.4,2.2-.2,2.2.6ZM453,134.8c-.5.8-1,1.3-1.5,1.3s-.7-.4-.7-1.3.5-1.3,1.5-1.3,1,.4.7,1.3ZM469.7,139.8c1.5.6-.2,1-5.2,1.3-2,0-3.8,0-5.4-.2-1.6-.1-2.4-.3-2.4-.5s.6-.4,1.7-.6c1.1-.2,2.4-.3,3.9-.3h4.3c1.4,0,2.4.1,3.2.3ZM479,140.8c-.7.2-1.5.3-2.4.3s-1.5-.2-2-.6c-.7-.2.1-.3,2.6-.3s3.8.2,1.9.6ZM484.5,133.6c1,.8,2,1.3,3,1.3,1.5,0,2.2-.4,2.2-1.3s-1-1.6-3-1.6-2.7.5-2.2,1.6ZM546.9,140.5c0,1.9-.2,2.2-.7.9-.7-1-.7-1.9,0-2.5.5-.4.7.1.7,1.6ZM584,143.6c-3.7,1.5-5.6,1.6-5.6.3s1.5-1.3,4.5-1.3c3.2-.2,3.6.1,1.1.9ZM591,149.6c.5.4,1.5.4,3,0,1-.2.6-.5-1.1-.9-1.7,0-2.4.3-1.9.9ZM595.5,144.6c-1.2.4-2.5.4-3.7,0-.7-.4-.1-.6,1.9-.6s2.6.2,1.9.6ZM608.5,144.9c0,2.3-.2,2.8-.7,1.6-.5-1-.5-2.1,0-3.1.5-1.3.7-.7.7,1.6ZM615.5,153.7c-.5.8-1.9,1-4.1.6-2.7-.4-4.1-.8-4.1-1.3s1.4-.6,4.1-.6,4.6.4,4.1,1.3ZM617,146.1c-1,.8-1.6,1.3-1.9,1.3s-.4-.4-.4-1.3.5-1.3,1.5-1.3,1.2.4.7,1.3ZM624.1,153.7c1.7,0,2.6.5,2.6,1.6s-1.1,1-3.3.6c-2.5-.4-4-.6-4.5-.6-.7-.2-1.1-.6-1.1-1.3,0-1,2.1-1.1,6.3-.3ZM649.7,153.7c.2,1,1.3,1.6,3.2,1.7,1.9.1,4.1-.2,6.9-.8,2.5-.4,3-.3,1.5.3-1,.6-1.4,1-1.1,1.1.2.1,1,.2,2.2.2,2.2,0,3.5-.4,3.7-1.3.2-.8,1.7-.8,4.5,0,2.5.8,2.7,1.4.7,1.6-1,0-1.1.2-.4.5s2.1.7,4.1,1.1l6.7,1.6-10.4.3c-3.5.2-6.2.3-8.2.3h-5.2c-1.5,0-2.9,0-4.3-.2-1.4-.1-3.3-.3-5.8-.5-8.9-.8-15-1.9-18.2-3.3-3.2-1.4-1.4-1.9,5.6-1.7,4.7,0,7.8-.4,9.3-1.3,1.2-.6,1.9-.4,1.9.6s0,1.3.2,1.3.4-.4.9-1.3c1-1,1.7-1.1,2.2-.3ZM667.5,138.6c0,1.5.7,2.3,2,2.5,1.4.2,2.3-.3,2.8-1.6.5-1.3.7-1,.7.6.2.8.9,1.4,1.9,1.6,1,.2,3.2.3,6.7.3,5.4-.2,8.4.2,8.9,1.3.5,1,2,1.6,4.5,1.6s3.6-.7,3.3-2.2c-.2-1.5-1.6-2.1-4.1-1.9-2.5.2-3-.1-1.5-.9,1.5-.8,1.7-1.3.6-1.4-1.1-.1-2.9.4-5.4,1.4-2.5.8-4.6.5-6.3-.9-1.2-1-2.9-1.6-5-1.6s-4,.5-5.8,1.6c-1.2.6-1.9.6-1.9,0,.5-1.9.2-2.8-.7-2.8s-.7.8-.7,2.5ZM688.3,160.2c0,.6-.7.7-2.2.3-1.5-.4-2.2-.8-2.2-1.3s.7-.3,2.2-.3,2.2.4,2.2,1.3ZM692,160.2c1,.8.9,1.3-.4,1.3s-1.9-.4-1.9-1.3.2-1.3.7-1.3c.7,0,1.2.4,1.5,1.3ZM694.2,157.1c0,2.1-.2,2.3-.7.6-.5-1-.5-1.8,0-2.2.2-.4.4-.4.6,0,.1.4.2.9.2,1.6ZM696.8,152.4c-.7.8-1.6,1.3-2.6,1.3s-1-.4-.7-1.3c1-.8,1.9-1.3,2.6-1.3s1.2.4.7,1.3ZM696.8,161.5c-1,.8-1.6,1.3-1.9,1.3-.5,0-.7-.4-.7-1.3s.6-1.3,1.9-1.3,1,.4.7,1.3ZM701.3,160.9c0,1.3-.4,1.9-1.1,1.9s-1.1-.4-1.1-1.3.4-1.5,1.1-1.9c.7-.2,1.1.2,1.1,1.3ZM700.9,140.5c.5.6,1.5.7,3,.3,1-.6.6-.9-1.1-.9s-1.4,0-1.9.2c-.5.1-.5.3,0,.5ZM708.7,142.4c.5.8-.4,1.2-2.6.9-2.7-.8-4.3-.7-4.8.3-.7.6-.2,1.2,1.5,1.6,1,0,2,0,3.2.2,1.1.1,2.3.2,3.5.2,1.2.2,2.8.4,4.6.5,1.9.1,3.8.3,5.8.5,2,.2,3.9.4,5.8.6,1.9.2,3.2.5,3.9.9,3.5,1.3,4.6.5,3.3-2.2-.5-1-1.8-1.9-3.9-2.5-2.1-.6-2.9-.4-2.4.6.2,1-.6,1.4-2.6,1.1-2-.3-3.7-1-5.2-2-.7-.6-1.7-1.1-3-1.4-1.2-.3-2.4-.5-3.5-.5s-2.1.1-3,.3c-.9.2-1.1.5-.6.9ZM713.9,162.1c0,.4-.4.7-1.3.9-.9.2-1.9.4-3,.5-1.1.1-2.2.1-3.3,0-1.1-.1-1.8-.4-2-.8-.5-.6,1-1.1,4.5-1.6,3.5-.4,5.2-.1,5.2.9ZM717.2,144.6c-1.2.4-2.2.3-3-.3-.5-.4.2-.6,2.2-.6s1.7.3.7.9ZM738,165.3c1.7.8,1.4,1.3-1.1,1.3s-1.8-.1-2.4-.3c-.6-.2-.7-.5-.2-.9.5-.8.9-1.3,1.1-1.3s1.1.4,2.6,1.3ZM735.8,146.7c-.5,1,0,1.9,1.3,2.7,1.4.7,2.5.8,3.5.2.2-.6-.4-.9-1.9-.9s-2-.6-.7-1.9c1.5-1.3,1.6-1.9.4-1.9s-1.6.6-2.6,1.9ZM751.4,164.6c0,.4.8.8,2.4,1.3,1.6.4,3.4.8,5.4,1.3,2,.2,3.7.5,5.2.9,1.5.4,2.2.8,2.2,1.3,0,1.5.5,1.4,1.5-.3,1-1.7,1.5-1.8,1.5-.3s-.6,1.9-1.9,2.5c-.7.4-1.9.6-3.3.6s-3.1,0-4.8-.2c-1.7-.1-3.4-.3-5-.6-1.6-.3-2.9-.8-3.9-1.4-1-.4-2.1-.8-3.3-1.3-1.2-.4-2.4-.6-3.3-.6-2,0-3-.3-3-.9,0-2.3,1.7-2.8,5.2-1.6,2.5.6,4,.5,4.5-.3.5-1.7.7-1.8.7-.3ZM743.2,147.4c1,.8,1.9,1.3,2.6,1.3s1.1-.4,1.1-1.3-.7-1.3-2.2-1.3-2,.4-1.5,1.3ZM755.8,150.8c1,.4,2.2.4,3.7,0,.5-.2.6-.4.2-.5-.4-.1-1.1-.2-2-.2-2.7,0-3.3.2-1.9.6ZM773.3,170.3c1,.8.7,1.3-.7,1.3s-1.5-.4-1.5-1.3.2-1.3.7-1.3,1,.4,1.5,1.3Z"/>
</svg>