<svg xmlns="http://www.w3.org/2000/svg" viewBox="0 0 600 400" width="600" height="400">
  <defs>
    <linearGradient id="boardroomBg" x1="0" y1="0" x2="0" y2="1">
      <stop offset="0%" stop-color="#1c3559"></stop>
      <stop offset="100%" stop-color="#0a1a2f"></stop>
    </linearGradient>
  </defs>
  <rect width="600" height="400" fill="url(#boardroomBg)"></rect>
  
  <g opacity="0.22" stroke="#c9a14a" stroke-width="1" fill="none">
    <line x1="0" y1="80" x2="600" y2="80"></line>
    <line x1="0" y1="160" x2="600" y2="160"></line>
    <line x1="0" y1="240" x2="600" y2="240"></line>
    <line x1="120" y1="0" x2="120" y2="400"></line>
    <line x1="240" y1="0" x2="240" y2="400"></line>
    <line x1="360" y1="0" x2="360" y2="400"></line>
    <line x1="480" y1="0" x2="480" y2="400"></line>
  </g>
  
  <ellipse cx="300" cy="340" rx="220" ry="40" fill="#050d1a" opacity="0.7"></ellipse>
  
  <g fill="#161c25" opacity="0.85">
    <rect x="120" y="290" width="40" height="60" rx="4"></rect>
    <rect x="200" y="290" width="40" height="60" rx="4"></rect>
    <rect x="280" y="290" width="40" height="60" rx="4"></rect>
    <rect x="360" y="290" width="40" height="60" rx="4"></rect>
    <rect x="440" y="290" width="40" height="60" rx="4"></rect>
  </g>
  
  <rect x="0" y="0" width="600" height="2" fill="#c9a14a"></rect>
</svg>